<svg id="Head" xmlns="http://www.w3.org/2000/svg" xmlns:xlink="http://www.w3.org/1999/xlink" viewBox="0 0 600 600"><defs><style>.cls-1{fill:#fff;}.cls-2{fill:url(#radial-gradient);}.cls-3{fill:url(#radial-gradient-2);}.cls-4{fill:url(#linear-gradient);}.cls-5{fill:url(#linear-gradient-2);}.cls-6{fill:#374768;}.cls-7{fill:url(#linear-gradient-3);}.cls-8{fill:#ccb09e;}.cls-9{fill:url(#linear-gradient-4);}.cls-10{clip-path:url(#clip-path);}.cls-11{clip-path:url(#clip-path-2);}.cls-12{fill:none;}.cls-12,.cls-13{opacity:0.24;}.cls-14{fill:#d7f7ff;}.cls-15{fill:url(#linear-gradient-5);}.cls-16{fill:url(#linear-gradient-6);}.cls-17{clip-path:url(#clip-path-3);}.cls-18{clip-path:url(#clip-path-4);}.cls-19{fill:url(#linear-gradient-7);}.cls-20{fill:url(#linear-gradient-8);}.cls-21{fill:url(#linear-gradient-9);}.cls-22{fill:url(#linear-gradient-10);}.cls-23{fill:url(#linear-gradient-11);}.cls-24{fill:#aa8b79;}.cls-25{fill:url(#linear-gradient-12);}.cls-26{fill:url(#linear-gradient-13);}</style><radialGradient id="radial-gradient" cx="-548.52" cy="-534.7" r="24.84" gradientTransform="matrix(-0.74, 1.02, -0.99, -0.68, -680.5, 412.17)" gradientUnits="userSpaceOnUse"><stop offset="0" stop-color="#006837"/><stop offset="1" stop-color="#004056"/></radialGradient><radialGradient id="radial-gradient-2" cx="-956.95" cy="1150.91" r="24.84" gradientTransform="matrix(-1.02, 0.74, 0.68, 0.99, -1357.13, -220.07)" gradientUnits="userSpaceOnUse"><stop offset="0" stop-color="#603813"/><stop offset="1" stop-color="#42210b"/></radialGradient><linearGradient id="linear-gradient" x1="272.29" y1="583.31" x2="386.2" y2="47.78" gradientUnits="userSpaceOnUse"><stop offset="0" stop-color="#004e1c"/><stop offset="1" stop-color="#206460"/></linearGradient><linearGradient id="linear-gradient-2" x1="436.43" y1="587.78" x2="128.04" y2="351.82" gradientUnits="userSpaceOnUse"><stop offset="0.09" stop-color="#60002a"/><stop offset="0.53" stop-color="#460011"/><stop offset="0.9" stop-color="#340000"/></linearGradient><linearGradient id="linear-gradient-3" x1="327.3" y1="542.14" x2="269.5" y2="317.37" gradientUnits="userSpaceOnUse"><stop offset="0" stop-color="#004e1c"/><stop offset="0.02" stop-color="#ff6e55"/><stop offset="1" stop-color="#2064d4"/></linearGradient><linearGradient id="linear-gradient-4" x1="172.32" y1="216.98" x2="281.19" y2="216.98" xlink:href="#linear-gradient-3"/><clipPath id="clip-path"><path id="_Clipping_Path_" data-name="&lt;Clipping Path&gt;" class="cls-1" d="M264.43,201.73c-19-31.46-51.07-23.39-53.78-22.64-6.62,1.82-19.89,5.47-26.63,23-6.43,16.73-5.59,42.57,4.27,57.25,7.28,10.83,24.12,10.15,57.8,8.8,19.52-.79,23.9-2.66,26.89-7.93C280.58,246.83,274.85,219,264.43,201.73Z"/></clipPath><clipPath id="clip-path-2"><ellipse id="_Ellipse_" data-name="&lt;Ellipse&gt;" class="cls-2" cx="252.51" cy="219.4" rx="30.86" ry="30.14" transform="translate(-78.94 264.55) rotate(-48.74)"/></clipPath><linearGradient id="linear-gradient-5" x1="-469.29" y1="-739.36" x2="-483.45" y2="-748.58" gradientTransform="translate(-360.21 855.35) rotate(76.54)" gradientUnits="userSpaceOnUse"><stop offset="0"/><stop offset="1" stop-color="#1a1a1a"/></linearGradient><linearGradient id="linear-gradient-6" x1="327.5" y1="217.84" x2="436.37" y2="217.84" gradientUnits="userSpaceOnUse"><stop offset="0.02" stop-color="#ff6e55"/><stop offset="1" stop-color="#2064d4"/></linearGradient><clipPath id="clip-path-3"><path id="_Clipping_Path_2" data-name="&lt;Clipping Path&gt;" class="cls-1" d="M344.26,202.59c19-31.45,51.07-23.38,53.78-22.64,6.62,1.82,19.89,5.47,26.63,23,6.43,16.73,5.59,42.57-4.27,57.25-7.28,10.83-24.12,10.15-57.8,8.8-19.52-.79-23.9-2.66-26.89-7.93C328.11,247.69,333.84,219.84,344.26,202.59Z"/></clipPath><clipPath id="clip-path-4"><ellipse id="_Ellipse_2" data-name="&lt;Ellipse&gt;" class="cls-3" cx="402.69" cy="213.24" rx="30.14" ry="30.86" transform="translate(-40.66 318.47) rotate(-41.26)"/></clipPath><linearGradient id="linear-gradient-7" x1="-987.33" y1="1398.81" x2="-1001.5" y2="1389.59" gradientTransform="matrix(-0.23, 0.97, 0.97, 0.23, -1184.62, 855.35)" xlink:href="#linear-gradient-5"/><linearGradient id="linear-gradient-8" x1="316.08" y1="596.56" x2="430.84" y2="56.97" xlink:href="#linear-gradient"/><linearGradient id="linear-gradient-9" x1="98.21" y1="545.12" x2="211.96" y2="10.31" xlink:href="#linear-gradient"/><linearGradient id="linear-gradient-10" x1="333.28" y1="174.74" x2="429.65" y2="174.74" gradientUnits="userSpaceOnUse"><stop offset="0.09" stop-color="#004d00"/><stop offset="0.9" stop-color="#002700"/></linearGradient><linearGradient id="linear-gradient-11" x1="169.41" y1="175.46" x2="263.9" y2="175.46" xlink:href="#linear-gradient-10"/><linearGradient id="linear-gradient-12" x1="-706.56" y1="1060.78" x2="-716.94" y2="1020.44" gradientTransform="matrix(-0.8, -1.04, 0.85, -0.65, -1080.28, 329.82)" xlink:href="#linear-gradient-3"/><linearGradient id="linear-gradient-13" x1="55.58" y1="-159.45" x2="45.2" y2="-199.79" gradientTransform="matrix(0.8, -1.04, -0.85, -0.65, 37.72, 329.82)" xlink:href="#linear-gradient-3"/></defs><title>determinedP copy</title><path class="cls-4" d="M583,466.46a33.71,33.71,0,0,1,2.39-10.85,22.7,22.7,0,0,0-5-24.33,29.88,29.88,0,0,1-9-21.21,10.88,10.88,0,0,0-6.93-10.23c-7.21-2.79-13.78-7-15.77-14.46s1.56-15.08,3.75-22.45,2.29-17-4-21.05c-1.85-1.2-4.06-1.74-5.82-3.08l-.73-.72c-8.57-10.69,3.73-21.23,1.86-32.35-.93-5.47-5-9.61-8.07-14.17A40.24,40.24,0,0,1,530.92,258c3-9.87,9.83-20.71,4.62-29.53-5.08-8.58-18-8-24.26-15.66-9.65-11.76,2.7-33.57-8.15-44.13-5.65-5.51-14.81-4.61-21.28-9-14.64-10-6.93-39-22.48-47.4-5-2.71-11.11-2.15-16.53-3.9-8.38-2.71-14.15-10.47-19.94-17.35-32-38.11-81.2-59.81-129.7-57.24V34c-28-.49-273.06,7.08-265.28,422.1,0,0,95.45,58,262.36,54.33v-.15a2.09,2.09,0,0,0,2,.11c10.8-5.1,23.94-2.63,35.52,1,12.68,4,25.77,9.23,38.77,6.61,15.85-3.2,28.71-17.68,44.85-17.92,13.35-.2,25.1,9.51,38.34,11.31,15.73,2.14,31-7.09,46.89-6.86,7.95.12,15.75,2.61,23.71,2.51,9.89-.14,19.28-4.26,28.94-6.5s20.82-2.2,28.2,4.69c6.15-2.85,8.36-10.94,7.95-17.94S582.75,473.48,583,466.46Z"/><path class="cls-5" d="M177,547c0-108.25,56.64-196,126.5-196S430,438.75,430,547Z"/><ellipse class="cls-6" cx="275.99" cy="517.84" rx="23.92" ry="45.16"/><ellipse class="cls-6" cx="327.38" cy="517.84" rx="23.92" ry="45.16"/><path class="cls-7" d="M390.24,455.55c0-.25.05-.51.05-.76a14.89,14.89,0,0,0-.09-1.49c-1.95-57.78-40-103.89-86.74-103.89s-84.8,46.11-86.74,103.89a14.91,14.91,0,0,0-.1,1.49c0,.25,0,.51,0,.76,0,.8,0,1.59,0,2.39H217c4,17.69,41.16,31.55,86.46,31.55s82.47-13.86,86.46-31.55h.37C390.29,457.14,390.26,456.35,390.24,455.55Z"/><ellipse class="cls-8" cx="292.83" cy="217.41" rx="186.07" ry="148.37"/><path class="cls-9" d="M174.3,238.46c-3.38-14.82-2.38-32.07,2.6-45,7.9-20.56,23.93-25,30.77-26.85,4-1.09,39.33-9.64,60.52,25.42A95.41,95.41,0,0,1,279,219.46c2.07,9.06,4.53,26-2.16,37.81-4.81,8.5-12.55,10.29-31.92,11.07-35.86,1.44-53.85,2.16-63.05-11.52a54.5,54.5,0,0,1-7.55-18.36Z"/><path id="_Clipping_Path_3" data-name="&lt;Clipping Path&gt;" class="cls-1" d="M264.43,201.73c-19-31.46-51.07-23.39-53.78-22.64-6.62,1.82-19.89,5.47-26.63,23-6.43,16.73-5.59,42.57,4.27,57.25,7.28,10.83,24.12,10.15,57.8,8.8,19.52-.79,23.9-2.66,26.89-7.93C280.58,246.83,274.85,219,264.43,201.73Z"/><g class="cls-10"><ellipse id="_Ellipse_3" data-name="&lt;Ellipse&gt;" class="cls-2" cx="252.51" cy="219.4" rx="30.86" ry="30.14" transform="translate(-78.94 264.55) rotate(-48.74)"/><g class="cls-11"><line class="cls-12" x1="244.81" y1="232.11" x2="234.91" y2="242.9"/><line class="cls-12" x1="243.5" y1="230.79" x2="232.56" y2="240.43"/><line class="cls-12" x1="246.05" y1="234" x2="237.63" y2="246.11"/><line class="cls-12" x1="248.53" y1="235.32" x2="241.68" y2="248.48"/><line class="cls-12" x1="250.41" y1="236.5" x2="245.87" y2="250.72"/><g class="cls-13"><path class="cls-14" d="M245.6,233.69c-1,2.24-2.11,4.47-3.2,6.69-.54,1.12-1,2.26-1.65,3.33a28.21,28.21,0,0,1-2,3.12l-.07,0a28,28,0,0,1,1.41-3.45c.52-1.12,1.18-2.17,1.79-3.25,1.21-2.16,2.43-4.3,3.68-6.44Z"/></g><g class="cls-13"><path class="cls-14" d="M244,232.78c-1.27,2.11-2.55,4.22-3.86,6.3-.65,1-1.24,2.13-2,3.12a28,28,0,0,1-2.34,2.88l-.06,0a29.15,29.15,0,0,1,1.74-3.27c.64-1.06,1.4-2,2.11-3q2.13-3,4.31-6Z"/></g><g class="cls-13"><path class="cls-14" d="M247.27,235.17c-.75,2.37-1.51,4.74-2.3,7.1-.39,1.18-.73,2.38-1.2,3.52a29.08,29.08,0,0,1-1.62,3.38l-.07,0a28.06,28.06,0,0,1,.95-3.63c.37-1.18.89-2.31,1.35-3.47q1.38-3.47,2.82-6.9Z"/></g><g class="cls-13"><path class="cls-14" d="M250,235.76c-.45,2.46-.91,4.91-1.4,7.35-.24,1.22-.43,2.46-.76,3.66a28.68,28.68,0,0,1-1.18,3.57l-.07,0a28.89,28.89,0,0,1,.48-3.72c.23-1.23.6-2.42.92-3.63.62-2.41,1.27-4.82,1.93-7.23Z"/></g><g class="cls-13"><path class="cls-14" d="M243,231.32q-2.18,3-4.38,5.91c-.74,1-1.43,2-2.24,2.92a29.19,29.19,0,0,1-2.57,2.65l-.06-.05a29.31,29.31,0,0,1,2-3.09c.72-1,1.56-1.89,2.36-2.82q2.37-2.81,4.8-5.57Z"/></g></g><g class="cls-13"><path class="cls-14" d="M251.76,236.23q.8,3.66,1.51,7.34c.24,1.22.55,2.44.7,3.68a31.07,31.07,0,0,1,.27,3.75h-.08a29,29,0,0,1-1-3.63c-.26-1.22-.37-2.47-.54-3.71q-.51-3.71-1-7.43Z"/></g><g class="cls-13"><path class="cls-14" d="M254,236.29q1.26,3.53,2.44,7.06c.4,1.18.86,2.34,1.17,3.55a29.82,29.82,0,0,1,.75,3.67l-.07,0a28.67,28.67,0,0,1-1.43-3.46c-.42-1.18-.69-2.4-1-3.6q-1-3.6-1.91-7.22Z"/></g><g class="cls-13"><path class="cls-14" d="M255.79,234.9q1.68,3.33,3.3,6.67c.54,1.12,1.14,2.21,1.59,3.36a28.34,28.34,0,0,1,1.2,3.54l-.07,0a28.21,28.21,0,0,1-1.84-3.25c-.56-1.1-1-2.27-1.45-3.42q-1.44-3.44-2.8-6.89Z"/></g><g class="cls-13"><path class="cls-14" d="M257.81,234c1.47,2,2.92,4,4.36,6,.72,1,1.49,2,2.13,3a29.07,29.07,0,0,1,1.77,3.25l-.06,0a27.65,27.65,0,0,1-2.36-2.85c-.74-1-1.34-2.07-2-3.11q-2-3.11-3.91-6.26Z"/></g><g class="cls-13"><path class="cls-14" d="M259.68,232.78q2.22,3,4.36,6c.72,1,1.49,2,2.13,3A27.6,27.6,0,0,1,268,245l-.07.05a30.61,30.61,0,0,1-2.36-2.86c-.73-1-1.34-2.06-2-3.1q-2-3.12-3.9-6.27Z"/></g><g class="cls-13"><path class="cls-14" d="M261.21,231.58q2.63,2.55,5.22,5.14c.86.86,1.77,1.68,2.56,2.61a27.92,27.92,0,0,1,2.26,2.91l-.06,0a29.08,29.08,0,0,1-2.77-2.42c-.88-.85-1.64-1.81-2.45-2.72q-2.43-2.73-4.82-5.52Z"/></g><g class="cls-13"><path class="cls-14" d="M262.52,230.56q2.88,2.24,5.71,4.52c.95.76,1.94,1.48,2.82,2.31a27.46,27.46,0,0,1,2.54,2.63l0,.06a28.66,28.66,0,0,1-3-2.09c-1-.75-1.81-1.61-2.71-2.43q-2.7-2.44-5.36-4.94Z"/></g><ellipse class="cls-15" cx="251.84" cy="220.6" rx="10.84" ry="11.39"/><path class="cls-14" d="M271.06,207.28a27.23,27.23,0,0,0-5.18-4.17,23.48,23.48,0,0,0-5.91-2.74,14.89,14.89,0,0,0-1.56-.4l-1.58-.25c-.53-.06-1.06-.08-1.59-.15a11.74,11.74,0,0,0-1.57-.14c-2.13-.27-4.25-.07-6.6-.13l-.07-.23a13.69,13.69,0,0,1,6.71-2,12.83,12.83,0,0,1,3.55.35,28.81,28.81,0,0,1,3.35,1.17,24.78,24.78,0,0,1,10.64,8.55Z"/><g class="cls-13"><path class="cls-14" d="M264.61,222.18c2.33.54,4.65,1.11,7,1.69,1.16.29,2.33.52,3.47.9a26.46,26.46,0,0,1,3.35,1.32l0,.07a28,28,0,0,1-3.55-.63c-1.16-.28-2.28-.7-3.42-1.06q-3.42-1.07-6.82-2.21Z"/></g><g class="cls-13"><path class="cls-14" d="M264.51,219.44q3.56.33,7.11.72c1.18.13,2.38.19,3.55.41a26.88,26.88,0,0,1,3.49.85v.08a26.81,26.81,0,0,1-3.59-.15c-1.19-.11-2.35-.37-3.53-.57q-3.52-.6-7-1.26Z"/></g><g class="cls-13"><path class="cls-14" d="M264.58,217q3.56-.33,7.11-.6c1.19-.09,2.37-.25,3.57-.25a26.93,26.93,0,0,1,3.58.19v.08a26.89,26.89,0,0,1-3.55.52c-1.18.11-2.38.07-3.57.09-2.38,0-4.76.05-7.14.05Z"/></g><g class="cls-13"><path class="cls-14" d="M263.28,213.58q3.06-1.92,6.15-3.78c1-.63,2-1.3,3.11-1.85a26.7,26.7,0,0,1,3.32-1.46l0,.07a27.75,27.75,0,0,1-3,2.08c-1,.64-2.11,1.14-3.18,1.7q-3.19,1.69-6.42,3.31Z"/></g><g class="cls-13"><path class="cls-14" d="M263.86,215.28q3.25-1.53,6.54-3c1.1-.49,2.17-1,3.3-1.43a27.07,27.07,0,0,1,3.46-1l0,.08a27,27,0,0,1-3.19,1.68c-1.09.51-2.24.87-3.36,1.29q-3.36,1.27-6.75,2.47Z"/></g><g class="cls-13"><path class="cls-14" d="M262,211.4q2.91-2.18,5.85-4.3c1-.7,1.92-1.46,2.95-2.09a26.67,26.67,0,0,1,3.2-1.74l0,.06a26.81,26.81,0,0,1-2.8,2.33c-1,.72-2,1.32-3,2q-3.06,1.95-6.15,3.84Z"/></g><g class="cls-13"><path class="cls-14" d="M260,209.64c1.74-1.7,3.5-3.39,5.26-5.06.89-.83,1.73-1.71,2.67-2.48a28.74,28.74,0,0,1,3-2.16l.05.06a27.54,27.54,0,0,1-2.48,2.69c-.87.85-1.85,1.58-2.78,2.36q-2.79,2.35-5.62,4.65Z"/></g><g class="cls-13"><path class="cls-14" d="M258.33,208c1.42-2,2.87-4,4.33-5.95.73-1,1.41-2,2.21-2.94a29.18,29.18,0,0,1,2.55-2.67l.06.05a28.79,28.79,0,0,1-2,3.11c-.72,1-1.55,1.9-2.34,2.84q-2.36,2.82-4.76,5.61Z"/></g><g class="cls-13"><path class="cls-14" d="M254.31,206.91c.34-2.48.69-4.95,1.07-7.42.19-1.23.31-2.47.59-3.69a30.94,30.94,0,0,1,1-3.62h.08a29.18,29.18,0,0,1-.32,3.75c-.17,1.24-.49,2.45-.75,3.67-.52,2.44-1.05,4.88-1.61,7.31Z"/></g><g class="cls-13"><path class="cls-14" d="M256.71,207.63c.61-2.42,1.25-4.82,1.91-7.22.33-1.2.6-2.42,1-3.6a28,28,0,0,1,1.43-3.46l.07,0a29.82,29.82,0,0,1-.75,3.67c-.31,1.21-.77,2.37-1.17,3.55q-1.19,3.54-2.44,7.06Z"/></g><g class="cls-13"><path class="cls-14" d="M251.88,206.59c.14-2.5.31-5,.5-7.49.09-1.24.12-2.49.31-3.73a29.39,29.39,0,0,1,.74-3.69h.08a29.47,29.47,0,0,1,0,3.76c-.07,1.25-.3,2.48-.47,3.72-.32,2.48-.67,5-1.05,7.43Z"/></g><g class="cls-13"><path class="cls-14" d="M249.31,207.12c-.16-2.5-.31-5-.43-7.49-.06-1.25-.18-2.5-.15-3.75a27.82,27.82,0,0,1,.27-3.75h.08a29.91,29.91,0,0,1,.43,3.75c.08,1.24,0,2.5,0,3.75q0,3.75-.12,7.5Z"/></g><g class="cls-13"><path class="cls-14" d="M247.05,207.41c-.58-2.42-1.14-4.86-1.68-7.3-.27-1.21-.6-2.42-.78-3.66a28.88,28.88,0,0,1-.35-3.74h.07a27,27,0,0,1,1.05,3.61c.29,1.21.43,2.45.63,3.69q.6,3.69,1.13,7.4Z"/></g><g class="cls-13"><path class="cls-14" d="M244.21,209.41q-2.85-2.28-5.66-4.6c-.94-.77-1.92-1.5-2.8-2.34a27.58,27.58,0,0,1-2.5-2.67l.05-.06a28.7,28.7,0,0,1,3,2.14c.95.76,1.8,1.63,2.69,2.46q2.67,2.47,5.3,5Z"/></g><g class="cls-13"><path class="cls-14" d="M245.49,208.21c-1.72-1.74-3.41-3.5-5.09-5.28-.85-.89-1.73-1.73-2.51-2.68a28.36,28.36,0,0,1-2.18-3l.06-.05a28,28,0,0,1,2.71,2.5c.86.87,1.6,1.85,2.38,2.78q2.37,2.81,4.69,5.65Z"/></g><g class="cls-13"><path class="cls-14" d="M242.76,211.49q-3-2-6-4.11c-1-.69-2-1.33-3-2.1a28.29,28.29,0,0,1-2.71-2.44l.05-.07a28.19,28.19,0,0,1,3.13,1.88c1,.68,1.91,1.48,2.86,2.23,1.91,1.5,3.79,3,5.67,4.54Z"/></g><g class="cls-13"><path class="cls-14" d="M242,214.1q-3.24-1.59-6.45-3.25c-1.07-.55-2.17-1-3.19-1.67a27.38,27.38,0,0,1-3-2.06l0-.07a28.1,28.1,0,0,1,3.33,1.44c1.08.53,2.08,1.2,3.12,1.81,2.07,1.23,4.13,2.47,6.18,3.74Z"/></g><g class="cls-13"><path class="cls-14" d="M241.11,216.33q-3.45-1-6.89-2c-1.14-.35-2.31-.63-3.42-1.06a25.47,25.47,0,0,1-3.29-1.48l0-.07a26.37,26.37,0,0,1,3.52.8c1.15.33,2.25.8,3.37,1.21,2.25.82,4.48,1.67,6.72,2.53Z"/></g><g class="cls-13"><path class="cls-14" d="M245.87,207.88c-1.27-2.12-2.52-4.26-3.75-6.4-.61-1.07-1.28-2.12-1.81-3.23a28.06,28.06,0,0,1-1.44-3.44l.07,0a27.78,27.78,0,0,1,2.06,3.1c.63,1.06,1.13,2.2,1.68,3.3q1.65,3.31,3.26,6.67Z"/></g><g class="cls-13"><path class="cls-14" d="M239.57,221.14q-3.51.69-7,1.32c-1.17.21-2.34.49-3.52.61a26.81,26.81,0,0,1-3.59.17v-.07a26.47,26.47,0,0,1,3.48-.88c1.17-.23,2.36-.31,3.54-.45q3.56-.42,7.11-.78Z"/></g><g class="cls-13"><path class="cls-14" d="M239.31,219.25c-2.38.21-4.75.38-7.13.54-1.18.08-2.37.22-3.56.21a27,27,0,0,1-3.58-.22v-.08a25.22,25.22,0,0,1,3.55-.48c1.19-.1,2.38-.05,3.57-.06,2.38,0,4.76,0,7.14,0Z"/></g><g class="cls-13"><path class="cls-14" d="M239.45,223.43c-2.26.79-4.52,1.57-6.79,2.32-1.13.37-2.25.81-3.41,1.1a27.87,27.87,0,0,1-3.53.69l0-.08A27.07,27.07,0,0,1,229,226.1c1.13-.4,2.31-.65,3.46-1,2.31-.61,4.62-1.21,6.94-1.78Z"/></g><g class="cls-13"><path class="cls-14" d="M240.63,226.07c-2.14,1.09-4.28,2.17-6.44,3.22-1.07.53-2.13,1.12-3.24,1.56a27,27,0,0,1-3.42,1.17l0-.08a27.2,27.2,0,0,1,3.13-1.8c1.07-.55,2.21-1,3.31-1.42,2.22-.93,4.44-1.83,6.67-2.72Z"/></g><g class="cls-13"><path class="cls-14" d="M241.43,228.22q-2.88,2.21-5.79,4.36c-1,.72-1.91,1.49-2.94,2.13a26.55,26.55,0,0,1-3.17,1.78l-.05-.07a27,27,0,0,1,2.78-2.35c1-.74,2-1.35,3-2q3-2,6.11-3.91Z"/></g><g class="cls-13"><path class="cls-14" d="M239.79,217.49c-2.38,0-4.77-.07-7.15-.14-1.18,0-2.38,0-3.56-.12a28.78,28.78,0,0,1-3.55-.56v-.08a26.87,26.87,0,0,1,3.58-.15c1.19,0,2.38.18,3.56.29q3.56.3,7.11.68Z"/></g><g class="cls-13"><path class="cls-14" d="M233.2,255c2.13,1.14,4.24,2.3,6.35,3.47,1,.59,2.13,1.12,3.14,1.79a26.51,26.51,0,0,1,2.92,2.16l0,.07a27.38,27.38,0,0,1-3.28-1.56c-1.07-.57-2-1.27-3.06-1.92-2-1.29-4.06-2.61-6.07-3.94Z"/></g><g class="cls-13"><path class="cls-14" d="M233.84,252.46c2.17,1,4.34,2.09,6.49,3.16,1.08.53,2.18,1,3.22,1.63a29.74,29.74,0,0,1,3,2l0,.07a25.81,25.81,0,0,1-3.34-1.39c-1.09-.51-2.1-1.17-3.15-1.77-2.08-1.19-4.16-2.41-6.23-3.64Z"/></g><g class="cls-13"><path class="cls-14" d="M234.41,250.81c2.26.79,4.52,1.6,6.76,2.43,1.13.41,2.28.76,3.37,1.26a27,27,0,0,1,3.2,1.67l0,.07a27.59,27.59,0,0,1-3.47-1c-1.13-.39-2.2-.93-3.3-1.41-2.2-1-4.38-1.94-6.56-2.93Z"/></g><path class="cls-14" d="M213.69,226.52a35.29,35.29,0,0,0-3.86,2.33,17.71,17.71,0,0,1-1.74,1.32,10.58,10.58,0,0,1-2.08,1l-.12-.1a4.27,4.27,0,0,1,1.25-2.12,6.91,6.91,0,0,1,2.06-1.17,19,19,0,0,1,4.44-1.38Z"/></g><path class="cls-16" d="M434.39,239.32c3.38-14.82,2.38-32.07-2.6-45-7.9-20.56-23.93-25-30.77-26.85-4-1.09-39.33-9.64-60.52,25.42a95.64,95.64,0,0,0-10.79,27.46c-2.07,9.06-4.53,26,2.15,37.81,4.82,8.5,12.56,10.29,31.93,11.07,35.86,1.44,53.85,2.17,63-11.52a54.5,54.5,0,0,0,7.55-18.36Z"/><path id="_Clipping_Path_4" data-name="&lt;Clipping Path&gt;" class="cls-1" d="M344.26,202.59c19-31.45,51.07-23.38,53.78-22.64,6.62,1.82,19.89,5.47,26.63,23,6.43,16.73,5.59,42.57-4.27,57.25-7.28,10.83-24.12,10.15-57.8,8.8-19.52-.79-23.9-2.66-26.89-7.93C328.11,247.69,333.84,219.84,344.26,202.59Z"/><g class="cls-17"><ellipse id="_Ellipse_4" data-name="&lt;Ellipse&gt;" class="cls-3" cx="402.69" cy="213.24" rx="30.14" ry="30.86" transform="translate(-40.66 318.47) rotate(-41.26)"/><g class="cls-18"><line class="cls-12" x1="410.38" y1="225.95" x2="420.29" y2="236.75"/><line class="cls-12" x1="411.69" y1="224.64" x2="422.63" y2="234.28"/><line class="cls-12" x1="409.14" y1="227.85" x2="417.56" y2="239.96"/><line class="cls-12" x1="406.67" y1="229.17" x2="413.51" y2="242.33"/><line class="cls-12" x1="404.78" y1="230.35" x2="409.32" y2="244.57"/><g class="cls-13"><path class="cls-14" d="M409.66,227.5q1.88,3.19,3.69,6.44c.6,1.08,1.26,2.13,1.79,3.25a28.94,28.94,0,0,1,1.4,3.45l-.07,0a28.72,28.72,0,0,1-2-3.12c-.62-1.07-1.11-2.21-1.65-3.32q-1.62-3.33-3.2-6.7Z"/></g><g class="cls-13"><path class="cls-14" d="M411.25,226.58q2.19,3,4.31,6c.71,1,1.48,2,2.11,3a27.8,27.8,0,0,1,1.75,3.28l-.07,0a28.77,28.77,0,0,1-2.33-2.88c-.73-1-1.33-2.07-2-3.12-1.3-2.09-2.59-4.19-3.85-6.3Z"/></g><g class="cls-13"><path class="cls-14" d="M408,229q1.44,3.45,2.82,6.91c.45,1.15,1,2.28,1.35,3.47a31.55,31.55,0,0,1,.95,3.62l-.08,0a29,29,0,0,1-1.61-3.38c-.48-1.15-.81-2.35-1.21-3.53-.78-2.35-1.55-4.72-2.3-7.09Z"/></g><g class="cls-13"><path class="cls-14" d="M405.28,229.59c.67,2.4,1.31,4.81,1.94,7.23.31,1.21.69,2.4.91,3.63a28.67,28.67,0,0,1,.49,3.72l-.08,0a33.13,33.13,0,0,1-1.18-3.57c-.33-1.2-.51-2.44-.75-3.66q-.74-3.68-1.41-7.35Z"/></g><g class="cls-13"><path class="cls-14" d="M412.3,225.12q2.43,2.76,4.81,5.56c.79.94,1.64,1.83,2.36,2.82a28.45,28.45,0,0,1,2,3.1l-.06,0a27.92,27.92,0,0,1-2.58-2.64c-.81-.93-1.49-1.94-2.23-2.92q-2.22-2.94-4.38-5.91Z"/></g></g><g class="cls-13"><path class="cls-14" d="M403.51,230.09q-.45,3.72-1,7.43c-.17,1.24-.27,2.48-.54,3.7a31,31,0,0,1-1,3.64H401a29.32,29.32,0,0,1,.27-3.76c.15-1.24.45-2.45.69-3.67.49-2.46,1-4.9,1.51-7.34Z"/></g><g class="cls-13"><path class="cls-14" d="M401.32,230.16q-.93,3.61-1.92,7.22c-.33,1.2-.59,2.42-1,3.59a29.8,29.8,0,0,1-1.43,3.47l-.07,0a28.22,28.22,0,0,1,.75-3.68c.31-1.2.76-2.37,1.16-3.55.79-2.36,1.61-4.71,2.44-7.06Z"/></g><g class="cls-13"><path class="cls-14" d="M399.47,228.78q-1.37,3.47-2.79,6.9c-.48,1.14-.89,2.31-1.45,3.42a29.16,29.16,0,0,1-1.85,3.25l-.07,0a28.19,28.19,0,0,1,1.2-3.53c.46-1.16,1.06-2.25,1.6-3.36,1.07-2.23,2.17-4.46,3.29-6.67Z"/></g><g class="cls-13"><path class="cls-14" d="M397.45,227.88q-1.92,3.15-3.9,6.27c-.66,1-1.27,2.11-2,3.1a30.61,30.61,0,0,1-2.36,2.86l-.07,0a27.73,27.73,0,0,1,1.78-3.26c.64-1.05,1.41-2,2.13-3q2.14-3,4.36-6Z"/></g><g class="cls-13"><path class="cls-14" d="M395.58,226.67q-1.93,3.17-3.91,6.27c-.66,1-1.26,2.12-2,3.1a27.76,27.76,0,0,1-2.36,2.86l-.06,0A29.21,29.21,0,0,1,389,235.6c.64-1,1.41-2,2.13-3,1.44-2,2.89-4,4.36-6Z"/></g><g class="cls-13"><path class="cls-14" d="M394.05,225.48q-2.39,2.78-4.82,5.52c-.81.91-1.58,1.86-2.46,2.71a26.65,26.65,0,0,1-2.76,2.43l-.06-.06a27.71,27.71,0,0,1,2.25-2.9c.8-.93,1.71-1.75,2.57-2.62,1.72-1.72,3.46-3.44,5.22-5.14Z"/></g><g class="cls-13"><path class="cls-14" d="M392.73,224.47q-2.66,2.49-5.36,4.94c-.9.81-1.76,1.68-2.72,2.42a28.75,28.75,0,0,1-3,2.1l0-.06a27.57,27.57,0,0,1,2.54-2.64c.89-.83,1.87-1.54,2.82-2.3,1.89-1.53,3.8-3,5.72-4.52Z"/></g><ellipse class="cls-19" cx="403.35" cy="214.45" rx="10.84" ry="11.39"/><path class="cls-14" d="M383.94,201a26,26,0,0,1,4.68-5,25.1,25.1,0,0,1,6-3.56,28.81,28.81,0,0,1,3.35-1.17,12.42,12.42,0,0,1,3.54-.35,13.66,13.66,0,0,1,6.71,2l-.07.22c-2.34.07-4.47-.13-6.59.14a11.89,11.89,0,0,0-1.58.14c-.52.06-1.05.09-1.58.14l-1.58.26a13.68,13.68,0,0,0-1.56.39,23.74,23.74,0,0,0-5.92,2.75,27.54,27.54,0,0,0-5.18,4.17Z"/><g class="cls-13"><path class="cls-14" d="M390.6,216.11c-2.26.76-4.54,1.49-6.81,2.21-1.14.36-2.26.78-3.43,1.05a26,26,0,0,1-3.54.64l0-.08a25.82,25.82,0,0,1,3.35-1.31c1.13-.38,2.31-.61,3.46-.9q3.48-.89,7-1.69Z"/></g><g class="cls-13"><path class="cls-14" d="M390.7,213.36c-2.34.44-4.69.87-7,1.27-1.17.2-2.34.46-3.52.57a28.58,28.58,0,0,1-3.59.15v-.08a26.88,26.88,0,0,1,3.49-.85c1.17-.22,2.36-.29,3.55-.42q3.54-.39,7.11-.72Z"/></g><g class="cls-13"><path class="cls-14" d="M390.62,211q-3.58,0-7.15-.06c-1.19,0-2.38,0-3.57-.08a27.13,27.13,0,0,1-3.55-.52v-.08a26.93,26.93,0,0,1,3.58-.19c1.19,0,2.37.15,3.56.24q3.57.27,7.12.61Z"/></g><g class="cls-13"><path class="cls-14" d="M391.88,207.5c-2.16-1.08-4.3-2.19-6.43-3.31-1.06-.56-2.16-1.07-3.18-1.71a26,26,0,0,1-3-2.08l0-.07a29.88,29.88,0,0,1,3.32,1.47c1.07.54,2.07,1.22,3.1,1.84q3.09,1.88,6.15,3.79Z"/></g><g class="cls-13"><path class="cls-14" d="M391.31,209.2q-3.39-1.22-6.76-2.47c-1.12-.42-2.26-.78-3.35-1.29a26.31,26.31,0,0,1-3.19-1.69l0-.07a27,27,0,0,1,3.46,1c1.13.4,2.2.95,3.29,1.44q3.29,1.46,6.55,3Z"/></g><g class="cls-13"><path class="cls-14" d="M393.17,205.31q-3.1-1.89-6.15-3.84c-1-.65-2.08-1.24-3-2a28,28,0,0,1-2.8-2.32l.05-.07a28,28,0,0,1,3.19,1.74c1,.63,2,1.39,3,2.1q2.94,2.12,5.84,4.29Z"/></g><g class="cls-13"><path class="cls-14" d="M395.17,203.54q-2.84-2.29-5.63-4.64c-.93-.78-1.9-1.52-2.77-2.37a28.94,28.94,0,0,1-2.49-2.69l.06-.06a27.65,27.65,0,0,1,3,2.17c.95.76,1.79,1.64,2.67,2.48q2.66,2.5,5.26,5Z"/></g><g class="cls-13"><path class="cls-14" d="M396.81,201.87q-2.42-2.77-4.77-5.61c-.78-.94-1.62-1.84-2.33-2.84a27,27,0,0,1-2-3.11l.06,0a27.89,27.89,0,0,1,2.55,2.67c.81.93,1.49,1.95,2.22,2.93,1.46,2,2.9,4,4.33,5.95Z"/></g><g class="cls-13"><path class="cls-14" d="M400.81,200.77c-.56-2.44-1.1-4.87-1.61-7.32-.26-1.22-.58-2.43-.75-3.66a29.18,29.18,0,0,1-.32-3.75h.07a27.34,27.34,0,0,1,1,3.61c.28,1.22.41,2.47.6,3.7.37,2.47.73,4.94,1.06,7.42Z"/></g><g class="cls-13"><path class="cls-14" d="M398.41,201.5c-.83-2.35-1.65-4.7-2.44-7.06-.4-1.18-.85-2.34-1.16-3.55a28.44,28.44,0,0,1-.76-3.67l.08,0a30.53,30.53,0,0,1,1.43,3.47c.41,1.17.68,2.39,1,3.59q1,3.6,1.92,7.22Z"/></g><g class="cls-13"><path class="cls-14" d="M403.24,200.44c-.37-2.47-.72-4.95-1.05-7.42-.16-1.24-.39-2.47-.47-3.72a29.61,29.61,0,0,1,0-3.77h.08a31.29,31.29,0,0,1,.74,3.69c.18,1.23.21,2.49.31,3.73.19,2.49.35,5,.5,7.48Z"/></g><g class="cls-13"><path class="cls-14" d="M405.81,201q-.1-3.75-.12-7.5c0-1.25-.09-2.5,0-3.75a29.75,29.75,0,0,1,.43-3.74h.08a29.87,29.87,0,0,1,.28,3.76c0,1.25-.09,2.5-.16,3.74q-.18,3.75-.42,7.5Z"/></g><g class="cls-13"><path class="cls-14" d="M408.07,201.25c.36-2.48.74-4.94,1.14-7.41.2-1.23.33-2.47.62-3.69a31.52,31.52,0,0,1,1.05-3.61l.08,0a27.53,27.53,0,0,1-.36,3.74c-.17,1.24-.51,2.44-.77,3.66q-.81,3.66-1.68,7.3Z"/></g><g class="cls-13"><path class="cls-14" d="M410.93,203.19c1.76-1.68,3.52-3.35,5.31-5,.89-.83,1.73-1.71,2.68-2.46a27.79,27.79,0,0,1,3-2.14l.05.06a27.6,27.6,0,0,1-2.51,2.67c-.87.84-1.85,1.57-2.79,2.34q-2.81,2.33-5.66,4.59Z"/></g><g class="cls-13"><path class="cls-14" d="M409.65,202q2.31-2.85,4.68-5.65c.79-.94,1.53-1.91,2.39-2.79a29.06,29.06,0,0,1,2.7-2.49l.06,0a27.62,27.62,0,0,1-2.18,3c-.77,1-1.66,1.79-2.5,2.68q-2.52,2.66-5.09,5.28Z"/></g><g class="cls-13"><path class="cls-14" d="M412.39,205.27q2.81-2.29,5.66-4.55c.95-.75,1.87-1.55,2.87-2.22a27.3,27.3,0,0,1,3.13-1.88l0,.06a27.14,27.14,0,0,1-2.7,2.45c-.94.77-2,1.41-3,2.1-2,1.39-4,2.75-6,4.1Z"/></g><g class="cls-13"><path class="cls-14" d="M413.2,207.88c2.05-1.26,4.11-2.51,6.18-3.73,1-.61,2-1.28,3.12-1.82a27.36,27.36,0,0,1,3.33-1.43l0,.07a27.29,27.29,0,0,1-3,2.05c-1,.63-2.13,1.13-3.2,1.68-2.14,1.1-4.29,2.19-6.45,3.25Z"/></g><g class="cls-13"><path class="cls-14" d="M414.06,210.1c2.23-.86,4.47-1.71,6.71-2.53,1.13-.41,2.23-.89,3.38-1.21a25.88,25.88,0,0,1,3.51-.8l0,.07a27.54,27.54,0,0,1-3.29,1.47c-1.12.43-2.28.72-3.43,1.06-2.29.7-4.58,1.37-6.89,2Z"/></g><g class="cls-13"><path class="cls-14" d="M409.26,201.69c1.07-2.23,2.15-4.45,3.26-6.66.55-1.11,1-2.24,1.68-3.31a29.76,29.76,0,0,1,2.06-3.1l.07,0a28.85,28.85,0,0,1-1.44,3.43c-.53,1.12-1.21,2.16-1.82,3.23q-1.85,3.23-3.74,6.41Z"/></g><g class="cls-13"><path class="cls-14" d="M415.63,214.9c2.38.24,4.74.5,7.11.79,1.18.14,2.38.21,3.55.45a25.29,25.29,0,0,1,3.48.87v.08a25.25,25.25,0,0,1-3.59-.18c-1.19-.12-2.35-.39-3.52-.6q-3.52-.63-7-1.33Z"/></g><g class="cls-13"><path class="cls-14" d="M415.89,213c2.38,0,4.77,0,7.15,0,1.19,0,2.38,0,3.57.05a27,27,0,0,1,3.55.49v.08a27,27,0,0,1-3.58.22c-1.19,0-2.38-.13-3.57-.21-2.37-.16-4.75-.34-7.12-.54Z"/></g><g class="cls-13"><path class="cls-14" d="M415.77,217.2c2.32.58,4.64,1.17,7,1.79,1.15.31,2.32.56,3.45.95a27.43,27.43,0,0,1,3.33,1.37l0,.07a25.91,25.91,0,0,1-3.53-.69c-1.16-.28-2.28-.72-3.41-1.1q-3.41-1.12-6.79-2.31Z"/></g><g class="cls-13"><path class="cls-14" d="M414.6,219.84q3.34,1.33,6.66,2.73c1.11.46,2.24.87,3.31,1.41a27.92,27.92,0,0,1,3.13,1.81l0,.07a28.06,28.06,0,0,1-3.42-1.16c-1.12-.45-2.17-1-3.25-1.56q-3.22-1.59-6.44-3.22Z"/></g><g class="cls-13"><path class="cls-14" d="M413.81,222c2.05,1.28,4.08,2.59,6.11,3.91,1,.66,2.06,1.27,3,2a28.09,28.09,0,0,1,2.77,2.36l0,.07a28.86,28.86,0,0,1-3.18-1.78c-1-.65-2-1.42-2.93-2.14-1.95-1.43-3.88-2.89-5.8-4.36Z"/></g><g class="cls-13"><path class="cls-14" d="M415.4,211.26q3.56-.37,7.11-.69c1.19-.1,2.37-.27,3.56-.28a27,27,0,0,1,3.59.14v.08a26.86,26.86,0,0,1-3.54.56c-1.19.13-2.38.1-3.57.13-2.38.07-4.76.11-7.14.14Z"/></g><g class="cls-13"><path class="cls-14" d="M375.53,255.92c-2,1.33-4,2.65-6.07,3.94-1,.65-2,1.36-3.06,1.93a28.94,28.94,0,0,1-3.28,1.55l0-.07a27.85,27.85,0,0,1,2.92-2.16c1-.67,2.09-1.2,3.14-1.79q3.15-1.76,6.35-3.47Z"/></g><g class="cls-13"><path class="cls-14" d="M374.89,253.39c-2.07,1.23-4.15,2.45-6.23,3.64-1.05.6-2.06,1.26-3.15,1.77a25.81,25.81,0,0,1-3.34,1.39l0-.07a29.74,29.74,0,0,1,3-2c1-.62,2.14-1.09,3.22-1.63,2.15-1.07,4.32-2.13,6.49-3.16Z"/></g><g class="cls-13"><path class="cls-14" d="M374.31,251.75c-2.18,1-4.36,2-6.56,2.93-1.1.48-2.17,1-3.3,1.41a26,26,0,0,1-3.47,1l0-.07a27,27,0,0,1,3.2-1.67c1.09-.5,2.24-.85,3.36-1.26q3.38-1.24,6.77-2.43Z"/></g><path class="cls-14" d="M395.05,227.23a18.38,18.38,0,0,1,4.43,1.39,6.72,6.72,0,0,1,2.07,1.16,4.31,4.31,0,0,1,1.25,2.12l-.12.1a11.18,11.18,0,0,1-2.08-1,16.71,16.71,0,0,1-1.74-1.33,35.29,35.29,0,0,0-3.86-2.33Z"/></g><path class="cls-20" d="M282.34,43.24c-5.16,5.17,2.08,26.53,8.4,38.56a78.08,78.08,0,0,0,10.19,14.89c19.52,22.45,50.32,32.43,55.76,35C388.76,147,422.3,163,440.34,188.84c35.19,50.52,18.24,148.66,7.43,182.47-2.19,6.86-9.89,29.09,0,47.93,4.57,8.69,11.5,14,14.87,16.58,13,9.86,32.94,16.44,37.18,11.06,5.05-6.41-19.12-20.95-22.31-47.92-2.78-23.57,12.91-36,24.17-62.66,0,0,13.82-32.73,7.43-92.16C496.2,124,304,21.53,282.34,43.24Z"/><path class="cls-21" d="M277.21,94.85c-10.87,8.84-9.75,31.21-20.28,40.54-22.65,20.08-44.14,19.23-45.63,27.65-2.48,14.05,7.33,17.9,5.07,36.86-.61,5.15-8.56,21.1-20.28,27.65-7.59,4.24-5.65,1-18.59,3.69-2.34.47-24.45,5.27-28.73,20.27-1,3.37-.64,8.39,0,18.43.56,8.84,1.53,11.75,0,16.59-.44,1.4-2.72,8.61-8.45,11.06-5.25,2.25-7.76-1.94-13.52,0-7,2.34-10,10.69-10.14,11.06-1.22,3.46-.49,4.74,0,18.43.24,6.75.36,10.18,0,12.9-.6,4.62-1.6,12.23-6.76,16.59-2.92,2.47-4,1.22-8.45,3.69-7.46,4.15-11.13,11.44-11.83,12.9-3.74,7.75-3.5,16-3.38,20.27.14,4.93.86,6.21,0,9.22-1.49,5.18-5.55,8-10.14,11.06,0,0-5.1,3.41-20.28,9.21-8.19,6.5-17,6.22-20.28,1.85-2.44-3.24-2.07-9,0-12.91,2.37-4.49,5.68-4.09,16.9-11.06,8-5,9.45-7.12,10.14-9.21,1.18-3.59-.54-4.74,0-11.06.32-3.83,1.07-4.79,3.38-12.9,3.24-11.39,2-10.47,3.38-12.9,3.64-6.64,8.24-5.7,13.52-12.91a31.39,31.39,0,0,0,5.07-11.05c3.13-13.84-5.59-27.4-5.07-27.65.24-.12,2,3,3.38,7.37a35,35,0,0,1,1.69,9.22c-.29,0-.48-15.68-5.07-35-1.06-4.47-2.58-10.09,0-14.75,1.82-3.29,4.4-3.78,5.07-7.37.38-2-.31-4.42-1.69-9.22-1.18-4.09-1.86-5-1.69-7.37a15.64,15.64,0,0,1,1.69-5.53C87.81,237,89,237,89.62,234.92c.88-2.88-.82-4.24-1.69-9.21-.83-4.73.47-4.86,0-11.06-.5-6.62-2-7.07-1.69-11.06.32-3.81,2-6.34,5.07-11.06,5.8-8.76,8-7.78,10.14-12.9,2.61-6.25-.71-7.66,1.69-16.59.78-2.92,2.78-6.86,6.76-14.74,2.59-5.13,3.9-7.72,5.07-9.22.91-1.17,3.06-3.5,13.52-9.22,8.4-4.58,8.28-3.75,10.14-5.52,4.4-4.21,3.2-7.11,8.45-14.75,2.8-4.07,4.77-6.94,8.45-9.22,4-2.47,6.15-1.83,11.83-5.52,1.37-.89,2.6-1.83,5.07-3.69,3.88-2.93,5.82-4.4,6.76-5.53,3.57-4.29,2.08-6.91,5.07-9.22,1.21-.92,1.63-.63,8.45-1.84,4.57-.8,6.85-1.21,8.45-1.84a26.79,26.79,0,0,0,8.45-5.53c2.73-2.61,2.47-3.43,5.07-5.53A22.94,22.94,0,0,1,221.44,58a30.26,30.26,0,0,1,8.45-1.84c14.41-1.16,19.87,1.81,27-1.84,4.16-2.12,3.12-4.12,6.76-5.53,6.71-2.61,15.62.89,20.28,7.37a24.49,24.49,0,0,1,3.38,7.37c.34,1,2.67,8.39,1.69,14.75C287.78,86.49,281.19,91.61,277.21,94.85Z"/><path class="cls-22" d="M377.38,161.05a80.14,80.14,0,0,1-11.33,6.52c-19.59,9.3-34.44,21.22-32.62,27.93.64,2.36,3.88,3.41,5.69,4,3.3,1.08,13.35,3,46.12-26.88,9-8.19,11.61-11.41,18.23-13.77,13.18-4.7,25.71,1.88,26.17,0,.4-1.62-8.45-7.93-18.76-9.11a40,40,0,0,0-27.6,7c-1.39,1-2.75,2.1-4.17,3.09Z"/><path class="cls-23" d="M217.67,162.93a73,73,0,0,0,11.5,4.26c19.55,5.44,35.22,14.32,34.72,21.2-.18,2.41-3,4-4.51,5-2.84,1.66-11.71,5.38-46.89-17.69-9.65-6.32-12.61-9-19.08-10.06-12.88-2.15-23.21,6.58-24,4.84-.65-1.51,6.36-9.29,15.6-12.35a35.17,35.17,0,0,1,26.48,1.76c1.45.76,2.88,1.54,4.36,2.24Z"/><ellipse class="cls-24" cx="314.98" cy="284.69" rx="16.84" ry="7.37"/><path d="M259.16,313.25s32.06,26.44,67.34,10.57"/><path class="cls-8" d="M392.19,366.16c21.71-12.22,42.11-27,47.8-16.3s-7.31,29.25-29,41.47-43.92,13.47-49.6,2.79S370.48,378.38,392.19,366.16Z"/><path class="cls-25" d="M365,373.8a.57.57,0,0,0-.13.08l-.22.19c-8.69,7.2-11.18,18.72-5.48,26.11s17.47,7.91,26.64,1.33l.24-.17.11-.09.38-.28-.05-.06c2.25-2.74-.14-10.27-5.66-17.44s-12.2-11.39-15.43-9.91l0-.06Z"/><path class="cls-8" d="M210.25,369.16c-21.71-12.22-42.11-27-47.8-16.3s7.3,29.25,29,41.47,43.91,13.47,49.6,2.79S232,381.38,210.25,369.16Z"/><path class="cls-26" d="M237.43,376.8l.12.08.22.19c8.7,7.2,11.19,18.72,5.49,26.11s-17.47,7.91-26.65,1.33l-.24-.17-.11-.09-.37-.28,0-.06c-2.25-2.74.14-10.27,5.67-17.44s12.2-11.39,15.42-9.91l0-.06Z"/><ellipse class="cls-8" cx="162.1" cy="350" rx="19.9" ry="20"/><ellipse class="cls-8" cx="449.64" cy="349.5" rx="20.36" ry="20.5"/></svg>