<svg id="Layer_1" data-name="Layer 1" xmlns="http://www.w3.org/2000/svg" viewBox="0 0 1000 300"><defs><style>.cls-1{fill:#fff;}.cls-2{font-size:65.71px;font-family:AtramentSemiBold-Regular, Atrament;font-weight:700;}</style></defs><title>logoBlack</title><path d="M42.62,65.75l27.3-6L87.86,89.19l16.26-29.41,25.56,3q-.09,49.77-.19,99.55H100.67l-2.18-35-14,21.2-11.4-20.21-1.41,34H41.1Q41.86,114,42.62,65.75Z"/><path d="M150,137l-17.4-38.61a4.71,4.71,0,0,1,4.31-6.63H155l10.08,18.55,9.86-18.66h15.49a6.21,6.21,0,0,1,5.54,9.09l-17.82,33.88.11,27.71-27.36-.11Z"/><path d="M237.76,162.32h-34l.42-80.69-19.47-1.15L185,51.94l74,.13-.77,27.65-20.37.76Z"/><path d="M248,82.67l30.23.26.39,27h16l1.28-27.39,31.77.12-1.54,79.52-30.74.26V137l-16.53-.13,1.54,25.49H246.45Z"/><path d="M355,163.71a41.59,41.59,0,0,1-26-36.49c1-22.24,10-22.34,24.89-27.62l33-6c20.11,5.53,26.38,16.39,28.05,32-1.16,16.22-6.79,31.94-24.21,38.33l-17.81.62ZM363.68,120c-4.49,10.32,2.56,16.83,7.55,16.83,6.28,0,9.87-2.7,11.28-9.21C383,120.46,374.31,110.88,363.68,120Z"/><path d="M417.34,44l28.18.26,22.29,28.93.77-29.31,29.72.25L496,162.32l-27.76-38.83L445.52,92.15l-.26,31.6-29.37,38.57Z"/><path d="M503.62,128.47l22.81-79.65,39.45.64,23.14,74H555l-5.51-14.77-8.2-.13L525,162.32H422.9l24-25.88h54Zm43.81-52c-1.66,0-5,9-5.38,12.87,1.93,1.4,7.43.25,11.28-1C552.05,83.87,550.76,79.28,547.43,76.48Z"/><path d="M556,126.48h33l10,15.93,1-15.93h15l-2,35.84-13.77.16L582,147.39l-2,14.93-22.31.21Z"/><path d="M614,123.37C600.44,119.54,591,109.73,591,93.67c0-6.11.64-22.93,1.54-27.65,5.5-9,13.7-18.22,24.72-22.17l28.69-.26c9.48,4.21,17.81,7.9,22.16,25.11l-26.64,7.13c-2.95-1.53-7.17-3.31-10.76-2.93-6.15,1.4-9.35,5.1-9.74,10.32.39,7.14,5,10.71,11,10.71,4.23,0,7.81-2.68,10.89-6.37l27.8,7.13c-4,18.23-9.87,21.79-21.91,28.8Z"/><path d="M623.1,132.55l34.46-.1-2,29.87-31.26-.09Z"/><path d="M693.67,43.85l39.46.63,37,117.84h-42l-11.39-58.58-8.2-.13-9.43,58.71h-39Zm21,27.65c-1.67,0-5,9-5.38,12.87,1.92,1.4,7.43.26,11.27-1C719.29,78.89,718,74.3,714.68,71.5Z"/><path d="M741.13,44.85l56.78.12-1.53,51.48L820.08,98l.11,63.35h-47Z"/><g id="_Group_" data-name="&lt;Group&gt;"><path d="M941.45,103c16.33-11.29,22.4-29.55,16.14-43-4.83-10.39-15.54-14.76-19-16,0,0,27,21.33-18.26,38.67"/></g><g id="_Group_2" data-name="&lt;Group&gt;"><path d="M845,103c-16.33-11.29-22.41-29.55-16.15-43,4.83-10.39,15.55-14.76,19-16,0,0-27,21.33,18.25,38.67"/></g><path d="M943.15,152.72a5.38,5.38,0,0,1,.41-1.76,3.58,3.58,0,0,0-.85-3.94,4.73,4.73,0,0,1-1.52-3.44,1.75,1.75,0,0,0-1.18-1.65,3.9,3.9,0,0,1-2.67-2.35c-.34-1.2.26-2.44.64-3.63s.38-2.76-.68-3.42c-.31-.19-.69-.28-1-.49l-.12-.12c-1.45-1.73.63-3.44.31-5.24a6.23,6.23,0,0,0-1.36-2.3,6.27,6.27,0,0,1-.82-5.43c.52-1.6,1.67-3.36.79-4.79s-3.05-1.29-4.11-2.53c-1.64-1.91.45-5.44-1.38-7.16-1-.89-2.51-.74-3.61-1.46-2.48-1.61-1.17-6.32-3.81-7.68a16,16,0,0,0-2.8-.63C918,94.26,917,93,916,91.89a27.82,27.82,0,0,0-22-9.28v0c-4.74-.08-46.26,1.15-44.94,68.4,0,0,16.17,9.39,44.45,8.8v0a.35.35,0,0,0,.33,0c1.83-.83,4.06-.43,6,.16,2.15.65,4.37,1.5,6.57,1.07,2.68-.52,4.86-2.86,7.59-2.9,2.27,0,4.26,1.54,6.5,1.83,2.67.35,5.26-1.15,7.94-1.11,1.35,0,2.67.42,4,.41a23.82,23.82,0,0,0,4.9-1.06c1.64-.36,3.53-.35,4.78.76a2.89,2.89,0,0,0,1.35-2.9A32.65,32.65,0,0,1,943.15,152.72Z"/><path d="M892.21,84.14c-.87.84.35,4.3,1.42,6.25a12.1,12.1,0,0,0,1.73,2.41c3.31,3.64,8.53,5.26,9.45,5.68,5.43,2.47,11.11,5.06,14.17,9.26,6,8.18,3.09,24.09,1.26,29.56-.37,1.12-1.68,4.72,0,7.77a8.27,8.27,0,0,0,2.52,2.69c2.21,1.59,5.58,2.66,6.29,1.79.86-1-3.23-3.4-3.77-7.77-.48-3.82,2.18-5.83,4.09-10.15,0,0,2.34-5.3,1.26-14.93C928.44,97.23,895.88,80.62,892.21,84.14Z"/><path d="M891.34,92.5c-1.84,1.44-1.65,5.06-3.43,6.58-3.84,3.25-7.48,3.11-7.73,4.48-.42,2.27,1.24,2.9.86,6A7.9,7.9,0,0,1,877.6,114c-1.29.69-1,.17-3.15.6-.4.07-4.14.85-4.87,3.28a10.29,10.29,0,0,0,0,3,6.56,6.56,0,0,1,0,2.69,2.93,2.93,0,0,1-1.43,1.79c-.89.36-1.31-.32-2.29,0a3.15,3.15,0,0,0-1.72,1.79c-.2.56-.08.77,0,3a13.79,13.79,0,0,1,0,2.09,4,4,0,0,1-1.14,2.69c-.5.4-.68.19-1.43.59a5,5,0,0,0-2,2.09,6.79,6.79,0,0,0-.57,3.29c0,.8.15,1,0,1.49a3.44,3.44,0,0,1-1.72,1.79,19.48,19.48,0,0,1-3.43,1.5c-1.39,1.05-2.88,1-3.44.3a2.06,2.06,0,0,1,0-2.09c.4-.73,1-.67,2.86-1.8,1.36-.8,1.6-1.15,1.72-1.49.2-.58-.09-.77,0-1.79a10.69,10.69,0,0,1,.57-2.09c.55-1.85.35-1.7.58-2.09.61-1.08,1.39-.93,2.29-2.09a5.2,5.2,0,0,0,.86-1.8c.53-2.24-.95-4.44-.86-4.48a3.47,3.47,0,0,1,.57,1.2,5.71,5.71,0,0,1,.29,1.49,37.53,37.53,0,0,0-.86-5.67,3.19,3.19,0,0,1,0-2.39c.3-.54.74-.62.86-1.2a3.7,3.7,0,0,0-.29-1.49c-.2-.66-.32-.82-.29-1.19a2.44,2.44,0,0,1,.29-.9c.27-.57.46-.56.57-.9s-.14-.68-.28-1.49.07-.79,0-1.79-.35-1.15-.29-1.79a3.61,3.61,0,0,1,.86-1.8c1-1.42,1.35-1.26,1.72-2.09.44-1-.12-1.24.28-2.68a15.14,15.14,0,0,1,1.15-2.39,11.53,11.53,0,0,1,.86-1.5,7.16,7.16,0,0,1,2.29-1.49c1.42-.74,1.4-.61,1.71-.9.75-.68.55-1.15,1.44-2.39a4.65,4.65,0,0,1,1.43-1.49c.68-.4,1-.3,2-.9.23-.14.44-.29.86-.59a9,9,0,0,0,1.15-.9c.6-.69.35-1.12.86-1.49.2-.15.27-.11,1.43-.3a9.1,9.1,0,0,0,1.43-.3,4.63,4.63,0,0,0,1.43-.9c.46-.42.42-.55.86-.89a4,4,0,0,1,1.14-.6,5.56,5.56,0,0,1,1.44-.3c2.44-.18,3.36.3,4.58-.3.7-.34.52-.66,1.14-.89a3.22,3.22,0,0,1,3.44,1.19,4.09,4.09,0,0,1,.57,1.2,5.64,5.64,0,0,1,.29,2.39A4.51,4.51,0,0,1,891.34,92.5Z"/><path class="cls-1" d="M40.62,185.22l56.48-.53,56.48-.44,112.95-.56c37.66-.24,75.31-.19,113-.28l113-.18,113,.17,56.48.09,28.24.06,28.23.13,113,.56,56.48.45,56.48.53-56.48.53-56.48.45-113,.55-28.23.14-28.24.06-56.48.09-113,.17-113-.18c-37.65-.09-75.3,0-113-.28l-112.95-.56-56.48-.44Z"/><text class="cls-2" transform="translate(40.62 253.91) scale(1.01 1)">help investor pecunia beat the moneytaur </text></svg>