<svg id="Layer_1" data-name="Layer 1" xmlns="http://www.w3.org/2000/svg" xmlns:xlink="http://www.w3.org/1999/xlink" viewBox="0 0 1920 1080"><defs><style>.cls-1,.cls-24,.cls-27{fill:#fff;}.cls-2{fill:url(#radial-gradient);}.cls-3{fill:url(#radial-gradient-2);}.cls-4{clip-path:url(#clip-path);}.cls-5{fill:url(#linear-gradient);}.cls-6{fill:url(#linear-gradient-2);}.cls-7{fill:#ccb09e;}.cls-8{fill:url(#linear-gradient-3);}.cls-9{clip-path:url(#clip-path-2);}.cls-10{clip-path:url(#clip-path-3);}.cls-11{fill:none;}.cls-11,.cls-12{opacity:0.24;}.cls-13{fill:#d7f7ff;}.cls-14{fill:url(#linear-gradient-4);}.cls-15{fill:url(#linear-gradient-5);}.cls-16{fill:url(#linear-gradient-6);}.cls-17{fill:#aa8b79;}.cls-18{fill:url(#linear-gradient-7);}.cls-19{fill:url(#linear-gradient-8);}.cls-20{fill:url(#linear-gradient-9);}.cls-21{clip-path:url(#clip-path-4);}.cls-22{clip-path:url(#clip-path-5);}.cls-23{fill:url(#linear-gradient-10);}.cls-24{font-size:55.08px;font-family:Asphalt-Black, Asphalt;}.cls-25{fill:#0f0f01;}.cls-26,.cls-28{fill:#020407;}.cls-26{opacity:0.44;}.cls-27{font-size:66px;font-family:AtramentSemiBold-Regular, Atrament;font-weight:700;}</style><radialGradient id="radial-gradient" cx="1748.13" cy="-204.86" r="83.84" gradientTransform="matrix(-1.09, 0.06, 0.05, 1.08, 2181.76, 995.75)" gradientUnits="userSpaceOnUse"><stop offset="0" stop-color="#603813"/><stop offset="1" stop-color="#42210b"/></radialGradient><radialGradient id="radial-gradient-2" cx="2215.73" cy="55.76" r="243.08" gradientTransform="translate(1485.21 -492.25) rotate(90)" gradientUnits="userSpaceOnUse"><stop offset="0" stop-color="#879400"/><stop offset="1" stop-color="#7f7800"/></radialGradient><clipPath id="clip-path"><rect id="_Rectangle_" data-name="&lt;Rectangle&gt;" class="cls-1" x="4" width="1911" height="1080"/></clipPath><linearGradient id="linear-gradient" x1="957.36" y1="-39.21" x2="953.37" y2="1659.22" gradientUnits="userSpaceOnUse"><stop offset="0.02"/><stop offset="1" stop-color="#000a55"/></linearGradient><linearGradient id="linear-gradient-2" x1="-161.62" y1="1901.45" x2="169.33" y2="345.46" gradientUnits="userSpaceOnUse"><stop offset="0" stop-color="#004e1c"/><stop offset="1" stop-color="#206460"/></linearGradient><linearGradient id="linear-gradient-3" x1="12.39" y1="844.65" x2="344.12" y2="844.65" gradientUnits="userSpaceOnUse"><stop offset="0.02" stop-color="#ff6e55"/><stop offset="1" stop-color="#2064d4"/></linearGradient><clipPath id="clip-path-2"><path id="_Clipping_Path_" data-name="&lt;Clipping Path&gt;" class="cls-1" d="M63.44,800c57.92-92.16,155.63-68.52,163.87-66.34,20.2,5.34,60.61,16,81.17,67.47,19.59,49,17,124.74-13,167.74-22.18,31.72-73.49,29.74-176.13,25.78-59.47-2.3-72.83-7.78-81.93-23.23C14.23,932.09,31.69,850.49,63.44,800Z"/></clipPath><clipPath id="clip-path-3"><ellipse id="_Ellipse_" data-name="&lt;Ellipse&gt;" class="cls-2" cx="263.36" cy="879.47" rx="89.19" ry="93.12" transform="translate(-654.69 882.38) rotate(-73.51)"/></clipPath><linearGradient id="linear-gradient-4" x1="1814.6" y1="-236.4" x2="1772.93" y2="-263.53" gradientTransform="matrix(-0.23, 0.97, 0.97, 0.23, 924.2, -808.33)" gradientUnits="userSpaceOnUse"><stop offset="0"/><stop offset="1" stop-color="#1a1a1a"/></linearGradient><linearGradient id="linear-gradient-5" x1="-12.7" y1="1949.64" x2="322.1" y2="375.54" xlink:href="#linear-gradient-2"/><linearGradient id="linear-gradient-6" x1="330.33" y1="460.77" x2="119.73" y2="453.57" gradientTransform="matrix(0.92, -0.63, 0.4, 1.23, -225.9, 322.7)" gradientUnits="userSpaceOnUse"><stop offset="0.09" stop-color="#004d00"/><stop offset="0.9" stop-color="#002700"/></linearGradient><linearGradient id="linear-gradient-7" x1="1111.42" y1="447.1" x2="1718.89" y2="283.09" gradientUnits="userSpaceOnUse"><stop offset="0" stop-color="#2e4f88"/><stop offset="1"/></linearGradient><linearGradient id="linear-gradient-8" x1="1683.62" y1="1590.56" x2="2534.24" y2="189.54" gradientUnits="userSpaceOnUse"><stop offset="0" stop-color="#5b79af"/><stop offset="1"/></linearGradient><linearGradient id="linear-gradient-9" x1="1471.46" y1="726" x2="1745.78" y2="859.92" xlink:href="#linear-gradient-7"/><clipPath id="clip-path-4"><path id="_Clipping_Path_2" data-name="&lt;Clipping Path&gt;" class="cls-1" d="M1512.2,760.24c69.86-132.49,105.25-64.5,114.36-57C1713,774.69,1819.29,768,1853.36,836.1c32.46,64.86,22.68,100.44-2,129.27-34.67,40.46-98.25,48.86-240.47,54.86-82.41,3.48-101.47-2.53-115.75-22.64C1458.78,946.42,1473.9,832.87,1512.2,760.24Z"/></clipPath><clipPath id="clip-path-5"><ellipse id="_Ellipse_2" data-name="&lt;Ellipse&gt;" class="cls-3" cx="1572.11" cy="867.97" rx="128.98" ry="122.46" transform="translate(-114.84 252.27) rotate(-8.85)"/></clipPath><linearGradient id="linear-gradient-10" x1="2042.41" y1="-363.44" x2="1817.77" y2="-270.56" gradientTransform="translate(1276.92 -462.67) rotate(81.15)" xlink:href="#linear-gradient-4"/></defs><title>MythonancialStartPage</title><rect id="_Rectangle_2" data-name="&lt;Rectangle&gt;" class="cls-1" x="4" width="1911" height="1080"/><g class="cls-4"><rect class="cls-5" x="-3.5" y="0.5" width="1919" height="1079"/><path d="M1915,1V1079H-3V1H1915m1-1H-4V1080H1916V0Z"/><path class="cls-6" d="M769.59,1558.61a93.67,93.67,0,0,1,7.19-31.44c10-24.53,3.55-52.63-15.57-71-16.43-15.77-26.84-38.41-26.54-60.94.18-13.24-8.48-25-20.83-29.63-21.71-8.08-41.46-20.38-47.44-41.89s4.68-43.65,11.27-65,6.89-49.22-12-61c-5.57-3.47-12.21-5-17.5-8.9l-2.2-2.11c-25.74-31,11.24-61.48,5.59-93.69-2.77-15.82-15.14-27.83-24.27-41-23.68-34.2-26.59-82.22-4.9-118.36A74.92,74.92,0,0,0,633,891.91c-2.25-49.48-55.93-40.47-79.26-67.86-29-34.08,8.12-97.23-24.52-127.84-17-15.94-44.55-13.35-64-26.11-44-28.89-20.87-113.12-67.63-137.31-15.18-7.84-33.43-6.22-49.74-11.28-25.22-7.85-42.58-30.32-60-50.26C191.43,360.87,43.51,298-102.4,305.48v.65c-84.2-1.41-821.49,20.51-798.11,1222.57,0,0,287.19,167.86,789.34,157.37v-.43a6.47,6.47,0,0,0,6,.31c32.5-14.76,72-7.62,106.86,3,38.13,11.57,77.54,26.75,116.65,19.14,47.66-9.27,86.37-51.19,134.91-51.89,40.18-.58,75.52,27.54,115.37,32.75,47.31,6.19,93.34-20.52,141.05-19.86,23.92.33,47.41,7.56,71.33,7.26,29.76-.39,58-12.34,87.07-18.82s62.66-6.36,84.85,13.59c18.49-8.25,25.16-31.68,23.92-52S768.72,1578.93,769.59,1558.61Z"/><ellipse class="cls-7" cx="-93.28" cy="843.39" rx="567" ry="434.7"/><path class="cls-8" d="M338.1,907.57c10.28-43.41,7.25-94-7.92-131.91C306.1,715.41,257.26,702.5,236.4,697c-12.07-3.2-119.84-28.24-184.4,74.48-14.32,22.8-26,51.36-32.9,80.44-6.29,26.53-13.79,76.21,6.58,110.77C40.36,987.6,63.94,992.84,123,995.12c109.25,4.22,164.09,6.34,192.12-33.76,10.3-14.74,18-32.84,23-53.78Z"/><path id="_Clipping_Path_3" data-name="&lt;Clipping Path&gt;" class="cls-1" d="M63.44,800c57.92-92.16,155.63-68.52,163.87-66.34,20.2,5.34,60.61,16,81.17,67.47,19.59,49,17,124.74-13,167.74-22.18,31.72-73.49,29.74-176.13,25.78-59.47-2.3-72.83-7.78-81.93-23.23C14.23,932.09,31.69,850.49,63.44,800Z"/><g class="cls-9"><ellipse id="_Ellipse_3" data-name="&lt;Ellipse&gt;" class="cls-2" cx="263.36" cy="879.47" rx="89.19" ry="93.12" transform="translate(-654.69 882.38) rotate(-73.51)"/><g class="cls-10"><line class="cls-11" x1="286.81" y1="916.71" x2="317" y2="948.34"/><line class="cls-11" x1="290.8" y1="912.86" x2="324.13" y2="941.09"/><line class="cls-11" x1="283.03" y1="922.26" x2="308.69" y2="957.75"/><line class="cls-11" x1="275.49" y1="926.12" x2="296.35" y2="964.68"/><line class="cls-11" x1="269.74" y1="929.59" x2="283.57" y2="971.24"/><g class="cls-12"><path class="cls-13" d="M284.62,921.23l5.65,9.4,5.55,9.45c1.84,3.16,3.85,6.22,5.45,9.51a83.94,83.94,0,0,1,4.31,10.13l-.21.12a84.86,84.86,0,0,1-6.17-9.12c-1.89-3.13-3.37-6.48-5-9.74l-4.93-9.79-4.83-9.85Z"/></g><g class="cls-12"><path class="cls-13" d="M289.46,918.55l6.6,8.75,6.51,8.81c2.16,2.94,4.49,5.77,6.42,8.87a84,84,0,0,1,5.35,9.61l-.2.14a85.5,85.5,0,0,1-7.09-8.41c-2.21-2.91-4-6.08-6-9.14L295.1,928l-5.84-9.27Z"/></g><g class="cls-12"><path class="cls-13" d="M279.54,925.61l4.34,10.08,4.23,10.13c1.39,3.39,3,6.7,4.11,10.17a83.41,83.41,0,0,1,2.91,10.63l-.22.09a83.08,83.08,0,0,1-4.88-9.88c-1.46-3.36-2.48-6.88-3.68-10.34l-3.57-10.38-3.46-10.42Z"/></g><g class="cls-12"><path class="cls-13" d="M271.26,927.36l3,10.57,2.89,10.6c1,3.53,2.09,7,2.77,10.62a84.54,84.54,0,0,1,1.52,10.93l-.23,0a82.81,82.81,0,0,1-3.57-10.43c-1-3.52-1.57-7.15-2.32-10.74l-2.2-10.76L271,927.41Z"/></g><g class="cls-12"><path class="cls-13" d="M292.65,914.25l7.36,8.11,7.27,8.18c2.41,2.74,5,5.35,7.18,8.26a82.4,82.4,0,0,1,6.18,9.08l-.18.15a82.62,82.62,0,0,1-7.81-7.73c-2.46-2.69-4.56-5.69-6.82-8.56l-6.72-8.63-6.64-8.71Z"/></g></g><g class="cls-12"><path class="cls-13" d="M265.86,928.82l-1.42,10.9-1.53,10.88c-.53,3.63-.86,7.28-1.66,10.86a83.92,83.92,0,0,1-2.92,10.64l-.23,0a83.66,83.66,0,0,1,.84-11c.46-3.64,1.39-7.19,2.11-10.78l2.23-10.76,2.35-10.74Z"/></g><g class="cls-12"><path class="cls-13" d="M259.19,929l-2.87,10.6-3,10.57c-1,3.51-1.82,7.09-3.1,10.53a82.53,82.53,0,0,1-4.32,10.14l-.23-.07A83.92,83.92,0,0,1,248,960c.95-3.54,2.35-6.94,3.55-10.39l3.66-10.36L259,929Z"/></g><g class="cls-12"><path class="cls-13" d="M253.57,925l-4.22,10.13L245,945.22c-1.45,3.35-2.72,6.79-4.43,10a84.22,84.22,0,0,1-5.59,9.49l-.22-.1a82.9,82.9,0,0,1,3.68-10.38c1.4-3.39,3.22-6.57,4.86-9.84l5-9.78,5.06-9.74Z"/></g><g class="cls-12"><path class="cls-13" d="M247.4,922.36l-5.91,9.23-6,9.16c-2,3-3.86,6.21-6.1,9.09a82,82,0,0,1-7.16,8.35l-.19-.13a83.12,83.12,0,0,1,5.43-9.57c2-3.08,4.3-5.89,6.49-8.82l6.58-8.75,6.68-8.69Z"/></g><g class="cls-12"><path class="cls-13" d="M241.69,918.82l-5.91,9.23-6,9.16c-2,3-3.86,6.21-6.1,9.09a82,82,0,0,1-7.16,8.35l-.19-.13a83.12,83.12,0,0,1,5.43-9.57c1.95-3.08,4.3-5.89,6.48-8.82l6.59-8.75,6.68-8.69Z"/></g><g class="cls-12"><path class="cls-13" d="M237,915.32l-7.32,8.13-7.39,8.06c-2.48,2.67-4.81,5.49-7.48,8a84.09,84.09,0,0,1-8.41,7.07l-.17-.17a82.78,82.78,0,0,1,6.9-8.54c2.42-2.73,5.19-5.12,7.81-7.65l7.9-7.56,8-7.48Z"/></g><g class="cls-12"><path class="cls-13" d="M233,912.36l-8.14,7.29-8.21,7.2c-2.75,2.39-5.37,4.94-8.29,7.11a82.31,82.31,0,0,1-9.11,6.12l-.15-.19a81.08,81.08,0,0,1,7.77-7.74c2.7-2.45,5.71-4.52,8.58-6.75l8.66-6.66,8.74-6.56Z"/></g><ellipse class="cls-14" cx="265.38" cy="882.99" rx="33.03" ry="33.37"/><path class="cls-13" d="M206.26,843.54a61.26,61.26,0,0,1,6.71-7.85,86.51,86.51,0,0,1,7.76-6.92,81.65,81.65,0,0,1,8.69-5.87,74.6,74.6,0,0,1,9.53-4.59A91.63,91.63,0,0,1,249.12,815a39.78,39.78,0,0,1,10.71-1.07,45,45,0,0,1,10.59,1.73,37.48,37.48,0,0,1,9.71,4.29l-.2.67c-7,0-13.55-.19-20,.36-3.22.26-6.39.58-9.6.89a56.32,56.32,0,0,0-9.56,1.81,66.14,66.14,0,0,0-9.23,3.43,74.74,74.74,0,0,0-8.83,4.59A81.78,81.78,0,0,0,206.81,844Z"/><g class="cls-12"><path class="cls-13" d="M226.53,887.86l-10.37,3.31-10.41,3.2c-3.47,1-6.89,2.3-10.44,3.08a82.26,82.26,0,0,1-10.78,1.84l-.06-.23a82.27,82.27,0,0,1,10.23-3.88c3.45-1.11,7-1.77,10.56-2.63L215.85,890l10.62-2.41Z"/></g><g class="cls-12"><path class="cls-13" d="M226.83,879.82l-10.72,1.92-10.73,1.8c-3.58.59-7.13,1.37-10.75,1.69a82.63,82.63,0,0,1-10.92.4l0-.23a81.23,81.23,0,0,1,10.64-2.5c3.57-.66,7.2-.84,10.81-1.22L216,880.57l10.84-1Z"/></g><g class="cls-12"><path class="cls-13" d="M226.58,872.8H215.69l-10.88-.13c-3.63-.06-7.26.08-10.87-.25a81.46,81.46,0,0,1-10.82-1.54v-.23a81.58,81.58,0,0,1,10.91-.58c3.63,0,7.24.46,10.85.72l10.85.83,10.85.95Z"/></g><g class="cls-12"><path class="cls-13" d="M230.42,862.64l-9.8-4.78L210.87,853c-3.24-1.64-6.58-3.11-9.69-5a81.63,81.63,0,0,1-9.08-6.13l.11-.21a84.08,84.08,0,0,1,10.09,4.27c3.27,1.58,6.32,3.59,9.46,5.41l9.42,5.51,9.35,5.61Z"/></g><g class="cls-12"><path class="cls-13" d="M228.69,867.61l-10.31-3.55-10.26-3.65c-3.41-1.24-6.9-2.28-10.22-3.77a82.67,82.67,0,0,1-9.74-5l.08-.22a80.76,80.76,0,0,1,10.52,3c3.44,1.17,6.71,2.78,10.05,4.21l10,4.31,10,4.43Z"/></g><g class="cls-12"><path class="cls-13" d="M234.35,856.22,225,850.66,215.63,845c-3.1-1.9-6.32-3.62-9.27-5.75a83.28,83.28,0,0,1-8.56-6.84l.13-.2a82,82,0,0,1,9.71,5.07c3.14,1.84,6,4.08,9,6.15l8.95,6.25,8.88,6.35Z"/></g><g class="cls-12"><path class="cls-13" d="M240.46,851.05l-8.6-6.74-8.52-6.84c-2.84-2.29-5.8-4.43-8.45-6.93a82.58,82.58,0,0,1-7.61-7.91l.16-.17a82.1,82.1,0,0,1,9,6.3c2.87,2.24,5.44,4.84,8.14,7.28l8.06,7.37,8,7.47Z"/></g><g class="cls-12"><path class="cls-13" d="M245.44,846.16,238.15,838l-7.2-8.24c-2.39-2.76-4.94-5.39-7.11-8.32a82.49,82.49,0,0,1-6.11-9.13l.18-.15a83.78,83.78,0,0,1,7.75,7.79c2.44,2.72,4.51,5.73,6.74,8.62l6.66,8.69,6.57,8.76Z"/></g><g class="cls-12"><path class="cls-13" d="M257.63,842.92l-2.5-10.7-2.39-10.72c-.78-3.58-1.76-7.12-2.27-10.75a83.28,83.28,0,0,1-1-11l.24,0a84.69,84.69,0,0,1,3.08,10.59c.85,3.56,1.23,7.21,1.81,10.83L256.28,832l1.58,10.88Z"/></g><g class="cls-12"><path class="cls-13" d="M250.34,845.06l-3.77-10.32-3.66-10.35c-1.2-3.46-2.6-6.85-3.54-10.39a83,83,0,0,1-2.32-10.78l.23-.07a84.17,84.17,0,0,1,4.33,10.14c1.27,3.43,2.09,7,3.1,10.53l3,10.56L250.57,845Z"/></g><g class="cls-12"><path class="cls-13" d="M265.05,842,263.4,831.1l-1.53-10.89c-.5-3.62-1.2-7.23-1.42-10.89a82.77,82.77,0,0,1-.13-11l.23,0a83,83,0,0,1,2.23,10.81c.57,3.62.66,7.29,1,10.94l.84,11,.71,11Z"/></g><g class="cls-12"><path class="cls-13" d="M272.87,843.49l-.24-11-.12-11c0-3.66-.25-7.33,0-11a83.13,83.13,0,0,1,1.3-11H274a83.37,83.37,0,0,1,.82,11c.1,3.66-.29,7.31-.47,11l-.58,11-.71,11Z"/></g><g class="cls-12"><path class="cls-13" d="M279.77,844.32l1.68-10.86,1.8-10.84c.61-3.61,1-7.26,1.91-10.81a82.06,82.06,0,0,1,3.17-10.57l.23,0a81.69,81.69,0,0,1-1.1,11c-.54,3.63-1.56,7.16-2.37,10.73l-2.49,10.7L280,844.37Z"/></g><g class="cls-12"><path class="cls-13" d="M288.49,850l8.05-7.39,8.13-7.3c2.72-2.42,5.3-5,8.2-7.21a82.16,82.16,0,0,1,9-6.23l.15.18a81.18,81.18,0,0,1-7.67,7.84c-2.67,2.48-5.65,4.59-8.5,6.86l-8.58,6.76-8.66,6.67Z"/></g><g class="cls-12"><path class="cls-13" d="M284.57,846.55l7.11-8.33,7.19-8.24c2.4-2.74,4.66-5.62,7.27-8.17a82.69,82.69,0,0,1,8.22-7.28l.18.16a81.75,81.75,0,0,1-6.68,8.72c-2.35,2.79-5.06,5.25-7.62,7.85l-7.7,7.76-7.79,7.69Z"/></g><g class="cls-12"><path class="cls-13" d="M292.92,856.11l8.61-6.72,8.67-6.62c2.91-2.2,5.69-4.56,8.75-6.53a81.68,81.68,0,0,1,9.5-5.48l.13.19a81.53,81.53,0,0,1-8.27,7.2c-2.86,2.25-6,4.12-9,6.15l-9.09,6.05-9.16,5.95Z"/></g><g class="cls-12"><path class="cls-13" d="M295.38,863.76l9.41-5.53,9.45-5.43c3.16-1.79,6.23-3.77,9.52-5.32a80.29,80.29,0,0,1,10.12-4.18l.11.2a82,82,0,0,1-9.13,6c-3.13,1.86-6.48,3.3-9.73,4.91l-9.79,4.81-9.85,4.7Z"/></g><g class="cls-12"><path class="cls-13" d="M298,870.26l10.22-3.78,10.25-3.66c3.42-1.21,6.78-2.61,10.29-3.55a83,83,0,0,1,10.69-2.33l.07.23a81.26,81.26,0,0,1-10,4.33c-3.4,1.28-6.95,2.1-10.43,3.11l-10.48,3-10.5,2.89Z"/></g><g class="cls-12"><path class="cls-13" d="M283.39,845.63l4.92-9.81,5-9.74c1.69-3.24,3.2-6.58,5.13-9.69a83.52,83.52,0,0,1,6.26-9.06l.2.12a83.24,83.24,0,0,1-4.41,10.09c-1.62,3.27-3.67,6.31-5.53,9.45l-5.65,9.41-5.74,9.34Z"/></g><g class="cls-12"><path class="cls-13" d="M302.81,884.34l10.83,1.07,10.82,1.2c3.6.41,7.23.62,10.8,1.31a80.8,80.8,0,0,1,10.61,2.59l0,.23a82.69,82.69,0,0,1-10.92-.49c-3.61-.35-7.15-1.16-10.73-1.78l-10.72-1.89-10.7-2Z"/></g><g class="cls-12"><path class="cls-13" d="M303.6,878.82l10.88-.08,10.88,0c3.63,0,7.26-.15,10.88.15a79.94,79.94,0,0,1,10.83,1.44v.23a81.58,81.58,0,0,1-10.9.67c-3.63,0-7.25-.38-10.86-.61l-10.86-.74-10.85-.85Z"/></g><g class="cls-12"><path class="cls-13" d="M303.23,891.07l10.59,2.55,10.56,2.67c3.51.9,7.08,1.61,10.52,2.78a82.3,82.3,0,0,1,10.17,4l-.07.23a82.1,82.1,0,0,1-10.75-2c-3.53-.84-6.94-2.13-10.39-3.24l-10.37-3.34-10.32-3.46Z"/></g><g class="cls-12"><path class="cls-13" d="M299.65,898.8l10.17,3.93,10.12,4c3.37,1.36,6.82,2.53,10.08,4.14a82.33,82.33,0,0,1,9.56,5.33l-.1.22a82,82,0,0,1-10.4-3.39c-3.4-1.3-6.6-3-9.89-4.57l-9.84-4.68-9.8-4.79Z"/></g><g class="cls-12"><path class="cls-13" d="M297.24,905.12l9.33,5.66,9.27,5.77c3.08,1.94,6.27,3.7,9.2,5.87a80.91,80.91,0,0,1,8.48,6.93l-.13.2a81.87,81.87,0,0,1-9.65-5.18c-3.12-1.88-6-4.15-8.94-6.26l-8.88-6.35-8.81-6.45Z"/></g><g class="cls-12"><path class="cls-13" d="M302.11,873.66l10.83-1.08,10.84-1c3.61-.3,7.21-.81,10.84-.84a83.32,83.32,0,0,1,10.92.45v.24a81.5,81.5,0,0,1-10.8,1.66c-3.61.37-7.24.27-10.87.37l-10.87.26-10.89.13Z"/></g><g class="cls-12"><path class="cls-13" d="M158.72,956.21l-9.22,5.84-9.27,5.74c-3.1,1.9-6.1,4-9.34,5.64a82.27,82.27,0,0,1-10,4.51l-.12-.2a83.11,83.11,0,0,1,8.92-6.35c3.07-2,6.37-3.51,9.57-5.23l9.63-5.13,9.68-5Z"/></g><g class="cls-12"><path class="cls-13" d="M156.77,948.79l-9.47,5.41-9.53,5.3c-3.19,1.75-6.28,3.68-9.58,5.19a83.3,83.3,0,0,1-10.18,4l-.11-.21a81.87,81.87,0,0,1,9.21-5.93c3.15-1.81,6.52-3.2,9.8-4.77l9.85-4.68,9.9-4.56Z"/></g><g class="cls-12"><path class="cls-13" d="M155,944l-10,4.37-10,4.25c-3.35,1.4-6.63,3-10.07,4.14a81.75,81.75,0,0,1-10.54,2.94l-.09-.22a83.52,83.52,0,0,1,9.78-4.91c3.32-1.47,6.82-2.49,10.24-3.7l10.29-3.6,10.32-3.48Z"/></g><path class="cls-13" d="M218.22,872.14a58.75,58.75,0,0,1,6.8,1.57c1.12.35,2.24.7,3.34,1.1s2.18.87,3.27,1.33,2.2.9,3.29,1.42a12,12,0,0,1,3,2,13,13,0,0,1,3.9,6.28l-.35.32a34.12,34.12,0,0,1-6.33-2.81,16.29,16.29,0,0,1-2.7-1.84,29.28,29.28,0,0,0-2.61-2.07c-.94-.61-1.87-1.23-2.83-1.8s-1.92-1.19-2.9-1.76c-1.95-1.18-4-2.23-6-3.28Z"/></g><path class="cls-15" d="M-125.22,333.09c-15.73,15.15,6.34,77.73,25.58,113a227.21,227.21,0,0,0,31.06,43.62c59.47,65.79,153.34,95,169.92,102.6,97.71,44.74,199.91,91.54,254.88,167.4,107.22,148,55.58,435.54,22.65,534.6-6.68,20.1-30.13,85.22,0,140.4,13.91,25.47,35,41.13,45.32,48.6,39.74,28.88,100.35,48.17,113.27,32.4,15.41-18.79-58.26-61.39-68-140.4-8.49-69.06,39.32-105.52,73.63-183.6,0,0,42.12-95.87,22.65-270C526.45,569.81-59.15,269.49-125.22,333.09Z"/><path class="cls-16" d="M188.91,672a208.5,208.5,0,0,1-39.23,13.55C84,701.21,28.91,732.24,27,760.6c-.69,9.93,7.4,17.53,11.92,21.78,8.25,7.76,34.83,26,160.07-56.53,34.34-22.62,45.25-32.51,66.62-34.73,42.56-4.43,71.23,34.78,74.55,27.9,2.87-5.95-15.6-40.17-43.72-55.82-34.86-19.38-69.51-10.38-86.12-1.78-5.05,2.62-10.08,5.35-15.18,7.71Z"/><ellipse class="cls-17" cx="-41.98" cy="1040.44" rx="51.3" ry="21.6"/><path id="_Path_" data-name="&lt;Path&gt;" class="cls-18" d="M1481.74,742.14c-220.34-153.06-302.3-400.7-217.83-583.25,65.18-140.88,209.69-200.2,255.72-217,0,0-364.64,289.37,246.25,524.48"/><path class="cls-19" d="M2874,933.3c0,295.25-456.84,557.28-767.88,557.28-291.6,0-767.88-262-767.88-557.28s155.52-534.6,767.88-534.6C2773.52,398.7,2874,638.05,2874,933.3Z"/><path class="cls-20" d="M1903.49,876.83c9.42-60.52-.35-129.31-25.48-179.53-39.9-79.71-108.8-91.94-138.22-97.16-17-3-168.67-25.27-246.53,122.4-17.28,32.77-30.28,73.14-36.59,113.67C1450.91,873.21,1446,942,1478,987c23,32.44,56.18,37,138,33.54,151.4-6.39,227.39-9.6,261.69-67.56,12.61-21.3,21.31-46.92,25.85-76.12Z"/><path id="_Clipping_Path_4" data-name="&lt;Clipping Path&gt;" class="cls-1" d="M1512.2,760.24c69.86-132.49,105.25-64.5,114.36-57C1713,774.69,1819.29,768,1853.36,836.1c32.46,64.86,22.68,100.44-2,129.27-34.67,40.46-98.25,48.86-240.47,54.86-82.41,3.48-101.47-2.53-115.75-22.64C1458.78,946.42,1473.9,832.87,1512.2,760.24Z"/><g class="cls-21"><g class="cls-12"><path class="cls-13" d="M1661,963.32c-4,3-8.06,6-12.09,9l-12.18,8.88c-4.08,2.95-8,6.12-12.28,8.76a115,115,0,0,1-13.28,7.27L1611,997a113.55,113.55,0,0,1,11.64-9.68c4-3,8.4-5.51,12.64-8.22L1648,971c4.27-2.65,8.52-5.33,12.82-8Z"/></g><g class="cls-12"><path class="cls-13" d="M1657.53,953.4c-4.14,2.85-8.33,5.63-12.49,8.45l-12.59,8.31c-4.2,2.75-8.26,5.74-12.66,8.17a113.47,113.47,0,0,1-13.61,6.65l-.17-.27a113.66,113.66,0,0,1,12.08-9.14c4.15-2.84,8.65-5.11,13-7.62l13.1-7.48c4.39-2.45,8.76-4.94,13.17-7.35Z"/></g><g class="cls-12"><path class="cls-13" d="M1654.59,947c-4.42,2.4-8.88,4.72-13.32,7.08L1627.88,961c-4.47,2.29-8.82,4.84-13.46,6.79a113.81,113.81,0,0,1-14.23,5.18l-.14-.29a113.92,113.92,0,0,1,13-7.81c4.43-2.38,9.14-4.17,13.73-6.21l13.81-6.06c4.63-2,9.24-4,13.88-5.91Z"/></g><path class="cls-13" d="M1734,841.72a75.39,75.39,0,0,1,9.56,1.38c1.57.34,3.15.7,4.72,1.13s3.11.94,4.66,1.44,3.13,1,4.69,1.57a16.5,16.5,0,0,1,4.36,2.38,21.89,21.89,0,0,1,3.61,3.59,14.82,14.82,0,0,1,2.52,4.61l-.44.47a36.26,36.26,0,0,1-4.81-1.4c-1.44-.57-2.91-1.07-4.25-1.73a22.07,22.07,0,0,1-3.93-2.21,43.38,43.38,0,0,0-3.85-2.54c-1.35-.73-2.71-1.48-4.11-2.16s-2.78-1.41-4.2-2.08c-2.83-1.35-5.73-2.61-8.67-3.82Z"/><ellipse id="_Ellipse_4" data-name="&lt;Ellipse&gt;" class="cls-3" cx="1572.11" cy="867.97" rx="128.98" ry="122.46" transform="translate(-114.84 252.27) rotate(-8.85)"/><g class="cls-22"><line class="cls-11" x1="1535.62" y1="916.28" x2="1490.43" y2="956.19"/><line class="cls-11" x1="1530.53" y1="910.58" x2="1481.37" y2="945.47"/><line class="cls-11" x1="1540.22" y1="924.3" x2="1500.87" y2="969.97"/><line class="cls-11" x1="1550.22" y1="930.42" x2="1517.15" y2="980.83"/><line class="cls-11" x1="1557.78" y1="935.8" x2="1534.08" y2="991.23"/><g class="cls-12"><path class="cls-13" d="M1538.42,922.88c-2.55,4.34-5.17,8.63-7.76,12.94l-7.89,12.85c-2.65,4.27-5.07,8.69-8,12.76a114.46,114.46,0,0,1-9.52,11.77L1505,973a114.47,114.47,0,0,1,7.08-13.38c2.57-4.32,5.69-8.28,8.57-12.4l8.71-12.31c3-4.08,5.86-8.17,8.84-12.22Z"/></g><g class="cls-12"><path class="cls-13" d="M1532,918.72c-3,4-6.06,8-9.09,12l-9.21,11.94c-3.08,4-6,8.11-9.33,11.84a116.3,116.3,0,0,1-10.71,10.7l-.25-.21a112.45,112.45,0,0,1,8.46-12.55c3-4,6.53-7.64,9.83-11.43l10-11.32c3.37-3.74,6.69-7.51,10.09-11.22Z"/></g><g class="cls-12"><path class="cls-13" d="M1545,929.4c-1.94,4.64-4,9.25-5.93,13.87l-6.08,13.8c-2,4.59-3.83,9.31-6.22,13.73a113,113,0,0,1-7.83,13l-.29-.14a116,116,0,0,1,5.2-14.22c2-4.63,4.51-9,6.81-13.45l6.95-13.38c2.37-4.43,4.69-8.89,7.1-13.31Z"/></g><g class="cls-12"><path class="cls-13" d="M1556.23,932.68c-1.32,4.85-2.72,9.68-4.07,14.52l-4.23,14.48c-1.43,4.82-2.59,9.72-4.38,14.42a113.47,113.47,0,0,1-6.08,13.87l-.31-.1a114.56,114.56,0,0,1,3.31-14.78c1.33-4.84,3.3-9.49,5-14.22l5.15-14.17c1.77-4.71,3.49-9.43,5.3-14.12Z"/></g><g class="cls-12"><path class="cls-13" d="M1528.05,912.5c-3.35,3.76-6.76,7.45-10.13,11.18l-10.25,11.06c-3.43,3.67-6.66,7.54-10.36,11a114.19,114.19,0,0,1-11.63,9.69l-.24-.23a114.58,114.58,0,0,1,9.56-11.74c3.36-3.74,7.19-7,10.83-10.49l10.94-10.38c3.68-3.42,7.33-6.88,11-10.27Z"/></g></g><g class="cls-12"><path class="cls-13" d="M1563.55,935.16c.72,5,1.36,10,2,14.94l1.89,15c.61,5,1.5,10,1.74,15a114.2,114.2,0,0,1,0,15.14l-.32,0a114.33,114.33,0,0,1-2.86-14.87c-.71-5-.76-10-1.09-15l-.92-15c-.26-5-.55-10-.77-15.06Z"/></g><g class="cls-12"><path class="cls-13" d="M1572.73,936.13c1.4,4.84,2.71,9.69,4.07,14.53l3.91,14.56c1.28,4.86,2.83,9.66,3.75,14.61a113.39,113.39,0,0,1,2,15l-.31.08a113.24,113.24,0,0,1-4.86-14.35c-1.37-4.83-2.11-9.82-3.12-14.74l-3-14.79c-.93-4.94-1.91-9.87-2.8-14.82Z"/></g><g class="cls-12"><path class="cls-13" d="M1580.93,931.21c2,4.61,4,9.25,5.93,13.87l5.77,13.94c1.9,4.65,4.06,9.2,5.61,14a114.57,114.57,0,0,1,4,14.62l-.31.12a114.75,114.75,0,0,1-6.68-13.59c-2-4.62-3.37-9.47-5-14.22l-4.86-14.27c-1.57-4.78-3.18-9.54-4.71-14.34Z"/></g><g class="cls-12"><path class="cls-13" d="M1589.72,928.24c2.79,4.18,5.51,8.41,8.26,12.62l8.13,12.7c2.69,4.25,5.62,8.35,8,12.79a113.41,113.41,0,0,1,6.45,13.69l-.27.17a113.54,113.54,0,0,1-9-12.21c-2.77-4.19-5-8.72-7.43-13.11l-7.29-13.2c-2.38-4.43-4.8-8.83-7.15-13.28Z"/></g><g class="cls-12"><path class="cls-13" d="M1598,924c2.79,4.18,5.5,8.41,8.26,12.61l8.13,12.71c2.69,4.24,5.62,8.34,8,12.78a113.55,113.55,0,0,1,6.45,13.7l-.27.16a114.43,114.43,0,0,1-9-12.2c-2.77-4.2-5-8.73-7.43-13.12l-7.29-13.2c-2.38-4.43-4.81-8.83-7.15-13.28Z"/></g><g class="cls-12"><path class="cls-13" d="M1604.8,919.71c3.43,3.68,6.79,7.41,10.2,11.12L1625.07,942c3.35,3.76,6.91,7.33,10,11.32a113.83,113.83,0,0,1,8.59,12.47l-.25.21a114,114,0,0,1-10.82-10.59c-3.42-3.69-6.33-7.8-9.46-11.74l-9.33-11.84c-3.07-4-6.18-7.94-9.21-12Z"/></g><g class="cls-12"><path class="cls-13" d="M1610.65,916.09c3.81,3.28,7.56,6.63,11.34,9.95l11.22,10.06c3.73,3.37,7.65,6.54,11.12,10.18a115.65,115.65,0,0,1,9.89,11.47l-.23.24a114.53,114.53,0,0,1-11.9-9.36c-3.79-3.3-7.13-7.08-10.67-10.65l-10.55-10.77c-3.48-3.63-7-7.23-10.45-10.89Z"/></g><circle class="cls-23" cx="1568.93" cy="872.56" r="45.78"/><path class="cls-13" d="M1654.16,825.73c-1.48-1.79-3.1-3.5-4.75-5.16s-3.33-3.27-5.07-4.81a118.43,118.43,0,0,0-10.87-8.68,106.74,106.74,0,0,0-11.7-7.26,96.56,96.56,0,0,0-12.37-5.7,80.78,80.78,0,0,0-13-3.52l-3.29-.58c-1.09-.24-2.19-.38-3.29-.57-2.18-.42-4.37-.72-6.57-1.12-4.4-.64-8.87-1.29-13.43-1.63-2.29-.27-4.59-.34-6.94-.55-1.18-.16-2.35-.14-3.54-.23s-2.39-.17-3.62-.32l-.2-1a52,52,0,0,1,13.88-4.79,62.46,62.46,0,0,1,14.78-1.19,55.15,55.15,0,0,1,14.64,2.63,124.79,124.79,0,0,1,13.67,5.69,102.42,102.42,0,0,1,12.66,7.33,108.63,108.63,0,0,1,21.38,19.32,87.35,87.35,0,0,1,8.44,11.55Z"/><g class="cls-12"><path class="cls-13" d="M1622.18,883.23c4.81,1.45,9.6,3,14.4,4.47l14.36,4.62c4.78,1.56,9.65,2.85,14.3,4.77a115.28,115.28,0,0,1,13.7,6.45l-.11.31a114.67,114.67,0,0,1-14.68-3.71c-4.81-1.47-9.4-3.56-14.08-5.38l-14-5.54c-4.66-1.89-9.33-3.75-14-5.68Z"/></g><g class="cls-12"><path class="cls-13" d="M1622.61,872.19c5,.81,9.91,1.71,14.87,2.56l14.83,2.71c4.94.92,9.94,1.57,14.8,2.87a112.48,112.48,0,0,1,14.43,4.61l-.07.32a113.91,113.91,0,0,1-15-1.77c-5-.83-9.78-2.3-14.66-3.5l-14.63-3.66c-4.87-1.28-9.74-2.51-14.59-3.82Z"/></g><g class="cls-12"><path class="cls-13" d="M1623.68,862.61c5-.07,10.06-.06,15.09-.09l15.07.06c5,0,10.07-.19,15.08.23a113.11,113.11,0,0,1,15,2l0,.32a114.54,114.54,0,0,1-15.11.91c-5,.05-10-.56-15-.88l-15-1c-5-.4-10-.75-15-1.19Z"/></g><g class="cls-12"><path class="cls-13" d="M1619.35,848.32c4.5-2.25,9-4.42,13.54-6.63l13.62-6.49c4.54-2.15,9-4.54,13.67-6.34a113.26,113.26,0,0,1,14.4-4.71l.13.3a115.29,115.29,0,0,1-13.23,7.38c-4.5,2.23-9.28,3.86-13.93,5.74l-14,5.6c-4.69,1.81-9.36,3.67-14.06,5.45Z"/></g><g class="cls-12"><path class="cls-13" d="M1621.23,855.3c4.74-1.69,9.5-3.3,14.25-4.95l14.3-4.79c4.77-1.57,9.46-3.42,14.34-4.63A115.17,115.17,0,0,1,1679,838l.09.31a113,113,0,0,1-14,5.72c-4.74,1.67-9.67,2.71-14.53,4l-14.58,3.86c-4.87,1.23-9.73,2.51-14.62,3.7Z"/></g><g class="cls-12"><path class="cls-13" d="M1614.6,839.12c4.3-2.61,8.65-5.13,13-7.7l13-7.56c4.36-2.5,8.59-5.24,13.13-7.41a114.57,114.57,0,0,1,14-5.84l.15.29a114.45,114.45,0,0,1-12.59,8.41c-4.32,2.58-8.94,4.59-13.43,6.84l-13.51,6.7c-4.53,2.18-9,4.4-13.59,6.55Z"/></g><g class="cls-12"><path class="cls-13" d="M1606.7,831.39c3.93-3.14,7.91-6.21,11.86-9.32l12-9.19c4-3,7.83-6.32,12-9.06a114.55,114.55,0,0,1,13.09-7.61l.19.27a114,114,0,0,1-11.39,10c-3.94,3.13-8.27,5.72-12.43,8.54l-12.53,8.4c-4.2,2.75-8.38,5.54-12.61,8.26Z"/></g><g class="cls-12"><path class="cls-13" d="M1600.3,824.18c3.32-3.79,6.7-7.51,10-11.26l10.15-11.15c3.4-3.7,6.6-7.59,10.28-11a112.2,112.2,0,0,1,11.55-9.79l.23.23A115.5,115.5,0,0,1,1633.1,793c-3.33,3.77-7.14,7.07-10.74,10.58l-10.85,10.47c-3.66,3.45-7.29,6.93-11,10.35Z"/></g><g class="cls-12"><path class="cls-13" d="M1583.74,818.53c1.09-4.91,2.26-9.8,3.39-14.7l3.54-14.65c1.2-4.88,2.13-9.84,3.7-14.62a113,113,0,0,1,5.41-14.14l.31.09a112.23,112.23,0,0,1-2.6,14.91c-1.11,4.91-2.85,9.64-4.32,14.45l-4.48,14.4c-1.55,4.78-3,9.58-4.64,14.35Z"/></g><g class="cls-12"><path class="cls-13" d="M1593.59,822.23c1.68-4.75,3.43-9.46,5.15-14.19l5.29-14.12c1.78-4.7,3.31-9.5,5.44-14.06a114.14,114.14,0,0,1,7.09-13.37l.3.12a114.88,114.88,0,0,1-4.39,14.49c-1.7,4.73-4,9.22-6,13.81l-6.19,13.75c-2.11,4.56-4.18,9.14-6.34,13.69Z"/></g><g class="cls-12"><path class="cls-13" d="M1573.6,816.42c.69-5,1.47-9.95,2.2-14.92l2.36-14.9c.81-5,1.34-10,2.52-14.86a113.11,113.11,0,0,1,4.27-14.53l.32.06a114.22,114.22,0,0,1-1.41,15.08c-.71,5-2.07,9.83-3.16,14.74l-3.31,14.71c-1.16,4.9-2.27,9.8-3.47,14.68Z"/></g><g class="cls-12"><path class="cls-13" d="M1562.62,817.68c0-5,.16-10,.24-15.08l.4-15.07c.16-5,0-10.07.57-15.07a113.1,113.1,0,0,1,2.34-15l.32,0a112.89,112.89,0,0,1,.57,15.13c-.06,5-.77,10-1.21,15l-1.37,15c-.51,5-1,10-1.53,15Z"/></g><g class="cls-12"><path class="cls-13" d="M1553,818.1c-.84-5-1.6-9.93-2.41-14.89l-2.25-14.91c-.73-5-1.74-9.91-2.09-14.93a112.25,112.25,0,0,1-.32-15.14l.32,0a114.29,114.29,0,0,1,3.21,14.8c.83,5,1,10,1.45,15l1.29,15c.37,5,.79,10,1.12,15Z"/></g><g class="cls-12"><path class="cls-13" d="M1540.41,825.13c-3.76-3.34-7.47-6.73-11.21-10.09l-11.11-10.2c-3.68-3.42-7.57-6.63-11-10.32a114.39,114.39,0,0,1-9.74-11.59l.23-.23a114.38,114.38,0,0,1,11.78,9.51c3.75,3.34,7.05,7.16,10.54,10.78l10.42,10.89c3.44,3.68,6.9,7.31,10.31,11Z"/></g><g class="cls-12"><path class="cls-13" d="M1546.18,820.77c-3.33-3.76-6.6-7.58-9.91-11.37l-9.78-11.47c-3.25-3.84-6.71-7.5-9.66-11.57a114.63,114.63,0,0,1-8.27-12.69l.25-.2a113.7,113.7,0,0,1,10.55,10.86c3.32,3.78,6.13,8,9.15,12l9,12.08c3,4.06,6,8.1,8.9,12.18Z"/></g><g class="cls-12"><path class="cls-13" d="M1533.65,833c-4-3-8-6.1-12-9.15l-11.88-9.29c-4-3.11-8.07-6-11.78-9.4a115.24,115.24,0,0,1-10.64-10.78l.21-.25a114,114,0,0,1,12.51,8.54c4,3,7.59,6.58,11.36,9.9l11.26,10c3.72,3.39,7.47,6.74,11.16,10.16Z"/></g><g class="cls-12"><path class="cls-13" d="M1529.43,843.19c-4.38-2.47-8.71-5-13.07-7.52l-13-7.66c-4.32-2.57-8.79-4.9-12.91-7.79a116.47,116.47,0,0,1-12-9.3l.18-.28a114,114,0,0,1,13.51,6.84c4.37,2.49,8.39,5.53,12.55,8.34l12.47,8.48c4.13,2.87,8.28,5.71,12.39,8.61Z"/></g><g class="cls-12"><path class="cls-13" d="M1525.13,851.81c-4.75-1.66-9.46-3.4-14.19-5.11l-14.14-5.25c-4.7-1.77-9.51-3.29-14.07-5.41a113.47,113.47,0,0,1-13.39-7.06l.12-.3A114.42,114.42,0,0,1,1484,833c4.74,1.68,9.23,4,13.83,6l13.76,6.16c4.57,2.1,9.15,4.16,13.71,6.3Z"/></g><g class="cls-12"><path class="cls-13" d="M1547.88,819.58c-2.33-4.45-4.59-8.94-6.9-13.41l-6.75-13.48c-2.23-4.51-4.72-8.89-6.6-13.55a113.52,113.52,0,0,1-5-14.3l.29-.14a113.17,113.17,0,0,1,7.64,13.08c2.32,4.46,4,9.2,6,13.82l5.87,13.89c1.9,4.65,3.85,9.29,5.72,14Z"/></g><text class="cls-24" transform="translate(1550.42 898.2)">$</text><g class="cls-12"><path class="cls-13" d="M1517.1,870.55c-5,.56-10,1-15,1.56l-15,1.4c-5,.44-10,1.17-15,1.23a112.79,112.79,0,0,1-15.13-.54l0-.32a112.68,112.68,0,0,1,15-2.37c5-.54,10-.43,15.06-.59l15.07-.43c5-.08,10-.22,15.09-.26Z"/></g><g class="cls-12"><path class="cls-13" d="M1516.59,862.92c-5,0-10.06,0-15.09,0l-15.08-.2c-5-.08-10.06.11-15.07-.36a113,113,0,0,1-15-2.14l0-.32a112.88,112.88,0,0,1,15.12-.77c5,0,10,.64,15,1l15,1.17c5,.45,10,.85,15,1.34Z"/></g><g class="cls-12"><path class="cls-13" d="M1515.82,879.7c-4.87,1.24-9.77,2.39-14.65,3.58l-14.69,3.43c-4.89,1.12-9.74,2.52-14.71,3.27a114.3,114.3,0,0,1-15.07,1.51l-.06-.31a112.62,112.62,0,0,1,14.49-4.38c4.88-1.22,9.89-1.79,14.85-2.63l14.87-2.47c5-.77,9.93-1.59,14.91-2.32Z"/></g><g class="cls-12"><path class="cls-13" d="M1520,890.67c-4.67,1.86-9.37,3.64-14.06,5.46l-14.11,5.31c-4.72,1.75-9.34,3.76-14.17,5.16a115.67,115.67,0,0,1-14.74,3.46l-.11-.31a113.6,113.6,0,0,1,13.81-6.22c4.68-1.84,9.57-3.06,14.37-4.54l14.43-4.39c4.83-1.41,9.64-2.86,14.48-4.23Z"/></g><g class="cls-12"><path class="cls-13" d="M1522.64,899.55c-4.27,2.65-8.59,5.23-12.89,7.85l-13,7.7c-4.33,2.55-8.53,5.34-13,7.56a113.74,113.74,0,0,1-13.9,6l-.16-.28a113.76,113.76,0,0,1,12.5-8.56c4.28-2.63,8.88-4.69,13.35-7L1509,906c4.51-2.24,9-4.51,13.51-6.71Z"/></g><g class="cls-12"><path class="cls-13" d="M1519.18,856c-5-.42-10-.93-15-1.39l-15-1.56c-5-.54-10-.8-15-1.72a112.16,112.16,0,0,1-14.74-3.48l0-.32a115.54,115.54,0,0,1,15.14.59c5,.45,9.93,1.54,14.88,2.36l14.87,2.52c4.95.9,9.9,1.75,14.85,2.68Z"/></g></g><path class="cls-25" d="M2038.85,590.22a119.47,119.47,0,0,1-7.61,11c-2.73,3.46-5.68,6.64-8.7,9.84-1.5,1.61-3.12,3-4.73,4.52s-3.25,2.92-4.92,4.35c-3.36,2.8-6.93,5.34-10.55,7.92-1.83,1.24-3.74,2.35-5.63,3.53-1,.59-1.91,1.17-2.88,1.72s-1.94,1.13-2.94,1.63c-2,1-4,2-6.06,3-1,.49-2,1-3.08,1.47l-3.18,1.29c-2.12.83-4.27,1.72-6.44,2.51l-6.68,2.09c-1.12.34-2.25.66-3.38,1l-3.46.8c-2.32.54-4.64,1.08-7,1.49a134.21,134.21,0,0,1-29.39,1.81,132.7,132.7,0,0,1-30-4.93c-2.43-.73-4.85-1.53-7.27-2.36s-4.87-1.62-7.17-2.66-4.67-2-7-3-4.45-2.22-6.67-3.36c-4.52-2.28-8.43-4.81-12.52-7.33-2-1.27-3.77-2.57-5.66-3.85l-2.79-2-2.58-1.93-5.08-3.9-4.66-3.79-4.44-3.74-4.24-3.7c-1.32-1.18-2.65-2.33-4-3.53l-3.83-3.47-7.3-6.69c-9.48-8.74-18.45-17-28.58-25.45-5.1-4.16-10.3-8.57-15.79-12.9s-11.14-8.76-17-13.27-12.07-9.14-18.54-13.91l-9.93-7.4c-3.39-2.59-6.88-5.1-10.44-8a105.25,105.25,0,0,1,24.5-10.26,139.42,139.42,0,0,1,25.69-4.77,163.71,163.71,0,0,1,52.24,3.89c2.14.57,4.3,1.12,6.45,1.73s4.32,1.17,6.43,1.9c4.21,1.47,8.5,2.91,12.62,4.64q3.09,1.31,6.15,2.69c1,.45,2.05.91,3.07,1.38l3,1.49,5.91,3.06q1.48.76,2.88,1.59l2.81,1.63c1.86,1.09,3.77,2.19,5.57,3.32s3.54,2.26,5.3,3.41l2.62,1.73,2.48,1.7c1.66,1.13,3.29,2.3,4.93,3.45l4.6,3.34,4.41,3.27,8.13,6.12,1.92,1.48c.61.44,1.22.87,1.82,1.32l3.56,2.67c2.25,1.53,4.51,3.34,6.61,4.67l1.59,1.11c.53.35,1,.79,1.57,1.08q1.58,1,3.12,2c1,.74,2.09,1.3,3.14,1.93s2.1,1.32,3.17,1.94a135.73,135.73,0,0,0,13.58,6.88,165.49,165.49,0,0,0,15.55,5.89,259.09,259.09,0,0,0,38.55,8.52c3.61.44,7.32,1,11.12,1.55s7.71,1,11.69,1.45,8.09,1,12.3,1.51S2034.28,589.32,2038.85,590.22Z"/><rect class="cls-26" x="-95" y="171" width="2103" height="267"/><path class="cls-1" d="M476,213l27.28-6,17.92,29.55L537.46,207,563,210q-.11,50-.2,100H534l-2.17-35.16-14,21.3-11.39-20.31L505.07,310H474.48Q475.25,261.51,476,213Z"/><path class="cls-1" d="M583.29,284.55,565.9,245.77a4.73,4.73,0,0,1,4.31-6.66h18.06l10.08,18.63L608.2,239h15.49a6.25,6.25,0,0,1,5.53,9.14l-17.81,34,.11,27.83-27.34-.11Z"/><path class="cls-1" d="M671,310H637l.42-81.05L618,227.8l.25-28.68,74,.13L691.44,227l-20.35.77Z"/><path class="cls-1" d="M681.22,230l30.21.25.38,27.14h16l1.27-27.52,31.75.13-1.54,79.87-30.72.26v-25.6l-16.51-.13,1.54,25.6H679.68Z"/><path class="cls-1" d="M788.12,311.39c-16.52-6.54-25.35-22.33-26-36.65,1-22.34,10-22.43,24.87-27.74l33-6c20.1,5.55,26.36,16.46,28,32.13-1.15,16.29-6.78,32.09-24.19,38.51l-17.79.62Zm8.7-43.93c-4.48,10.36,2.56,16.9,7.55,16.9,6.28,0,9.86-2.71,11.27-9.25C816.15,268,807.45,258.33,796.82,267.46Z"/><path class="cls-1" d="M850.44,191.12l28.17.26,22.27,29.06.77-29.44,29.69.25L929,310l-27.74-39-22.65-31.49-.26,31.75L849,310Z"/><path class="cls-1" d="M936.67,276l22.78-80,39.43.64L1022,271H988l-5.51-14.84L974.3,256,958,310H856l24-26h54Zm43.77-52.23c-1.66,0-5,9.09-5.37,12.93,1.92,1.41,7.42.26,11.26-1C985.05,231.2,983.77,226.59,980.44,223.77Z"/><path class="cls-1" d="M989,274h33l10,16,1-16h15l-2,36-13.76.16L1015,295l-2,15-22.3.21Z"/><path class="cls-1" d="M1047,270.87c-13.57-3.84-23-13.69-23-29.82,0-6.15.64-23,1.53-27.78,5.51-9.09,13.7-18.31,24.71-22.27l28.67-.26c9.47,4.22,17.79,7.94,22.15,25.22l-26.63,7.17c-2.94-1.54-7.17-3.33-10.75-2.95-6.15,1.41-9.35,5.12-9.73,10.37.38,7.17,5,10.75,11,10.75,4.22,0,7.81-2.69,10.88-6.4l27.78,7.17c-4,18.3-9.86,21.89-21.89,28.93Z"/><path class="cls-1" d="M1056.05,280.1l34.44-.1-2,30-31.23-.1Z"/><path class="cls-1" d="M1126.57,191l39.43.64L1203,310h-42l-11.38-58.84-8.2-.13L1132,310h-39Zm21,27.77c-1.67,0-5,9.09-5.38,12.93,1.92,1.41,7.43.26,11.27-1C1152.18,226.2,1150.9,221.59,1147.57,218.77Z"/><path class="cls-1" d="M1174,192l56.74.12-1.53,51.72,23.68,1.53L1253,309h-47Z"/><path id="_Path_2" data-name="&lt;Path&gt;" class="cls-1" d="M1374.17,250.41c16.32-11.34,22.39-29.69,16.13-43.21-4.83-10.43-15.53-14.83-18.94-16.07,0,0,27,21.43-18.24,38.85"/><path id="_Path_3" data-name="&lt;Path&gt;" class="cls-1" d="M1277.83,250.41c-16.32-11.34-22.39-29.69-16.13-43.21,4.83-10.43,15.53-14.83,18.94-16.07,0,0-27,21.43,18.24,38.85"/><path class="cls-1" d="M1375.87,300.36a5.38,5.38,0,0,1,.41-1.77,3.61,3.61,0,0,0-.85-4,4.75,4.75,0,0,1-1.52-3.45,1.78,1.78,0,0,0-1.17-1.67,3.83,3.83,0,0,1-2.67-2.35c-.34-1.21.26-2.45.63-3.65s.39-2.77-.68-3.43c-.31-.19-.68-.28-1-.5l-.12-.12c-1.45-1.74.63-3.45.31-5.26a6.3,6.3,0,0,0-1.37-2.31,6.36,6.36,0,0,1-.81-5.46c.51-1.6,1.67-3.37.78-4.8s-3-1.3-4.1-2.55c-1.64-1.92.45-5.46-1.38-7.18-1-.9-2.51-.75-3.61-1.47-2.47-1.63-1.17-6.36-3.8-7.72a16.25,16.25,0,0,0-2.8-.63c-1.42-.44-2.4-1.71-3.38-2.83a27.72,27.72,0,0,0-22-9.31v0c-4.74-.07-46.23,1.16-44.91,68.71,0,0,16.16,9.43,44.41,8.84v0a.37.37,0,0,0,.34,0c1.83-.82,4-.42,6,.17,2.15.65,4.36,1.5,6.57,1.08,2.68-.52,4.86-2.88,7.59-2.92,2.26,0,4.25,1.55,6.49,1.84,2.66.35,5.25-1.15,7.94-1.12,1.34,0,2.66.43,4,.41a24.11,24.11,0,0,0,4.9-1.06c1.63-.36,3.52-.35,4.77.77a2.92,2.92,0,0,0,1.35-2.92A32.84,32.84,0,0,1,1375.87,300.36Z"/><path class="cls-1" d="M1325,231.47c-.87.84.35,4.32,1.42,6.28a12.52,12.52,0,0,0,1.73,2.42c3.3,3.66,8.52,5.28,9.44,5.7,5.42,2.49,11.1,5.09,14.16,9.3,6,8.22,3.08,24.2,1.25,29.7-.37,1.12-1.67,4.74,0,7.8a8.32,8.32,0,0,0,2.52,2.7c2.21,1.61,5.58,2.68,6.3,1.8.85-1-3.24-3.41-3.78-7.8-.47-3.84,2.18-5.86,4.09-10.2,0,0,2.34-5.32,1.26-15C1361.17,244.62,1328.64,227.94,1325,231.47Z"/><path class="cls-1" d="M1324.1,239.87c-1.84,1.44-1.65,5.08-3.43,6.6-3.84,3.27-7.48,3.13-7.73,4.5-.42,2.29,1.24,2.92.86,6a7.87,7.87,0,0,1-3.43,4.5c-1.29.69-1,.17-3.15.6-.39.08-4.14.86-4.86,3.3a10,10,0,0,0,0,3c.09,1.44.26,1.91,0,2.7a3,3,0,0,1-1.43,1.8c-.89.37-1.32-.31-2.29,0a3.16,3.16,0,0,0-1.72,1.8c-.2.57-.08.77,0,3a13.9,13.9,0,0,1,0,2.1,4.07,4.07,0,0,1-1.14,2.7c-.5.4-.68.2-1.43.6a5,5,0,0,0-2,2.1,6.83,6.83,0,0,0-.57,3.3,4.1,4.1,0,0,1,0,1.5,3.47,3.47,0,0,1-1.71,1.8,20,20,0,0,1-3.44,1.5c-1.38,1.06-2.87,1-3.43.3a2.07,2.07,0,0,1,0-2.1c.4-.73,1-.67,2.86-1.8,1.36-.81,1.6-1.16,1.72-1.5.2-.58-.09-.77,0-1.8a10.18,10.18,0,0,1,.57-2.1,16.44,16.44,0,0,1,.57-2.1c.62-1.08,1.4-.93,2.29-2.1a4.93,4.93,0,0,0,.86-1.8c.53-2.25-1-4.46-.86-4.5a3.47,3.47,0,0,1,.57,1.2,5.74,5.74,0,0,1,.29,1.5,36.47,36.47,0,0,0-.86-5.7,3.21,3.21,0,0,1,0-2.4c.31-.53.74-.61.86-1.2a3.54,3.54,0,0,0-.29-1.5,3.1,3.1,0,0,1-.28-1.2,2.37,2.37,0,0,1,.28-.9c.27-.57.47-.56.57-.9s-.13-.69-.28-1.5a17.83,17.83,0,0,1,0-1.8c-.09-1.08-.34-1.15-.29-1.8a3.7,3.7,0,0,1,.86-1.8c1-1.43,1.36-1.27,1.72-2.1.44-1-.12-1.24.28-2.7a16,16,0,0,1,1.15-2.4,11.53,11.53,0,0,1,.86-1.5,7.07,7.07,0,0,1,2.28-1.5c1.43-.75,1.41-.61,1.72-.9.75-.68.54-1.15,1.43-2.4a4.8,4.8,0,0,1,1.43-1.5c.68-.4,1-.3,2-.9a8.45,8.45,0,0,0,.86-.6,8.16,8.16,0,0,0,1.15-.9c.6-.7.35-1.12.86-1.5.2-.15.27-.1,1.43-.3a9.1,9.1,0,0,0,1.43-.3,4.63,4.63,0,0,0,1.43-.9c.46-.42.42-.56.86-.9a3.83,3.83,0,0,1,1.14-.6,5.58,5.58,0,0,1,1.43-.3c2.44-.19,3.36.3,4.58-.3.7-.34.53-.67,1.14-.9a3.22,3.22,0,0,1,3.44,1.2,4.21,4.21,0,0,1,.57,1.2,5.78,5.78,0,0,1,.28,2.4A4.51,4.51,0,0,1,1324.1,239.87Z"/><path class="cls-1" d="M474,333l56.44-.53,56.44-.44,112.87-.56c37.63-.24,75.25-.2,112.88-.29L925.5,331l112.88.18,56.43.09,28.22.05,28.22.14,112.88.56,56.43.45L1377,333l-56.44.53-56.43.45-112.88.56-28.22.14-28.22.05-56.43.09L925.5,335l-112.87-.18c-37.63-.09-75.25-.05-112.88-.29L586.88,334l-56.44-.44Z"/><text class="cls-27" transform="translate(474 402)">help investor pecunia beat the moneytaur </text><rect class="cls-28" x="-3.5" y="0.5" width="1919" height="119"/></g></svg>