<svg id="Head" xmlns="http://www.w3.org/2000/svg" xmlns:xlink="http://www.w3.org/1999/xlink" viewBox="0 0 600 600"><defs><style>.cls-1{fill:#a39289;}.cls-2{fill:url(#linear-gradient);}.cls-3{fill:url(#linear-gradient-2);}.cls-4{fill:#374768;}.cls-5{fill:url(#linear-gradient-3);}.cls-6{fill:#ccb09e;}.cls-7{clip-path:url(#clip-path);}.cls-8{fill:#473f3b;}.cls-9{clip-path:url(#clip-path-2);}.cls-10{fill:url(#linear-gradient-4);}.cls-11{fill:url(#linear-gradient-5);}.cls-12{fill:url(#linear-gradient-6);}.cls-13{fill:url(#linear-gradient-7);}.cls-14{fill:#aa8b79;}.cls-15{fill:url(#linear-gradient-8);}.cls-16{fill:#ef6f6f;}.cls-17{opacity:0.54;}.cls-18{fill:#fff;}.cls-19{fill:url(#linear-gradient-9);}</style><linearGradient id="linear-gradient" x1="272.29" y1="583.31" x2="386.2" y2="47.78" gradientUnits="userSpaceOnUse"><stop offset="0" stop-color="#004e1c"/><stop offset="1" stop-color="#206460"/></linearGradient><linearGradient id="linear-gradient-2" x1="436.43" y1="587.78" x2="128.04" y2="351.82" gradientUnits="userSpaceOnUse"><stop offset="0.09" stop-color="#60002a"/><stop offset="0.53" stop-color="#460011"/><stop offset="0.9" stop-color="#340000"/></linearGradient><linearGradient id="linear-gradient-3" x1="327.3" y1="542.14" x2="269.5" y2="317.37" gradientUnits="userSpaceOnUse"><stop offset="0" stop-color="#004e1c"/><stop offset="0.02" stop-color="#ff6e55"/><stop offset="1" stop-color="#2064d4"/></linearGradient><clipPath id="clip-path"><path class="cls-1" d="M434.39,239.32c3.38-14.82,2.38-32.07-2.6-45-7.9-20.56-23.93-25-30.77-26.85-4-1.09-39.33-9.64-60.52,25.42a95.64,95.64,0,0,0-10.79,27.46c-2.07,9.06-4.53,26,2.15,37.81,4.82,8.5,12.56,10.29,31.93,11.07,35.86,1.44,53.85,2.17,63-11.52a54.5,54.5,0,0,0,7.55-18.36Z"/></clipPath><clipPath id="clip-path-2"><path class="cls-1" d="M171.61,239.32c-3.38-14.82-2.38-32.07,2.6-45,7.9-20.56,23.93-25,30.77-26.85,4-1.09,39.33-9.64,60.52,25.42a95.64,95.64,0,0,1,10.79,27.46c2.07,9.06,4.53,26-2.15,37.81-4.82,8.5-12.56,10.29-31.93,11.07-35.86,1.44-53.85,2.17-63.05-11.52a54.5,54.5,0,0,1-7.55-18.36Z"/></clipPath><linearGradient id="linear-gradient-4" x1="316.08" y1="596.56" x2="430.84" y2="56.97" xlink:href="#linear-gradient"/><linearGradient id="linear-gradient-5" x1="98.21" y1="545.12" x2="211.96" y2="10.31" xlink:href="#linear-gradient"/><linearGradient id="linear-gradient-6" x1="29.56" y1="-508.39" x2="125.93" y2="-508.39" gradientTransform="matrix(1.04, 0.04, -0.02, 1.09, 283.02, 733.54)" gradientUnits="userSpaceOnUse"><stop offset="0.09" stop-color="#004d00"/><stop offset="0.9" stop-color="#002700"/></linearGradient><linearGradient id="linear-gradient-7" x1="-63.2" y1="830.38" x2="31.29" y2="830.38" gradientTransform="matrix(1, 0.03, -0.04, 1.07, 275.53, -713.22)" xlink:href="#linear-gradient-6"/><linearGradient id="linear-gradient-8" x1="-2117.58" y1="627.18" x2="-2127.96" y2="586.85" gradientTransform="matrix(1.2, 0.54, -0.44, 0.97, 3063.94, 942.61)" xlink:href="#linear-gradient-3"/><linearGradient id="linear-gradient-9" x1="-3595.81" y1="32.48" x2="-3606.18" y2="-7.86" gradientTransform="matrix(-1.24, 0.45, 0.37, 1, -4098.92, 1988.29)" xlink:href="#linear-gradient-3"/></defs><title>pettyP</title><path class="cls-2" d="M583,466.46a33.71,33.71,0,0,1,2.39-10.85,22.7,22.7,0,0,0-5-24.33,29.88,29.88,0,0,1-9-21.21,10.88,10.88,0,0,0-6.93-10.23c-7.21-2.79-13.78-7-15.77-14.46s1.56-15.08,3.75-22.45,2.29-17-4-21.05c-1.85-1.2-4.06-1.74-5.82-3.08l-.73-.72c-8.57-10.69,3.73-21.23,1.86-32.35-.93-5.47-5-9.61-8.07-14.17A40.24,40.24,0,0,1,530.92,258c3-9.87,9.83-20.71,4.62-29.53-5.08-8.58-18-8-24.26-15.66-9.65-11.76,2.7-33.57-8.15-44.13-5.65-5.51-14.81-4.61-21.28-9-14.64-10-6.93-39-22.48-47.4-5-2.71-11.11-2.15-16.53-3.9-8.38-2.71-14.15-10.47-19.94-17.35-32-38.11-81.2-59.81-129.7-57.24V34c-28-.49-273.06,7.08-265.28,422.1,0,0,95.45,58,262.36,54.33v-.15a2.09,2.09,0,0,0,2,.11c10.8-5.1,23.94-2.63,35.52,1,12.68,4,25.77,9.23,38.77,6.61,15.85-3.2,28.71-17.68,44.85-17.92,13.35-.2,25.1,9.51,38.34,11.31,15.73,2.14,31-7.09,46.89-6.86,7.95.12,15.75,2.61,23.71,2.51,9.89-.14,19.28-4.26,28.94-6.5s20.82-2.2,28.2,4.69c6.15-2.85,8.36-10.94,7.95-17.94S582.75,473.48,583,466.46Z"/><path class="cls-3" d="M177,547c0-108.25,56.64-196,126.5-196S430,438.75,430,547Z"/><ellipse class="cls-4" cx="275.99" cy="517.84" rx="23.92" ry="45.16"/><ellipse class="cls-4" cx="327.38" cy="517.84" rx="23.92" ry="45.16"/><path class="cls-5" d="M390.24,455.55c0-.25.05-.51.05-.76a14.89,14.89,0,0,0-.09-1.49c-1.95-57.78-40-103.89-86.74-103.89s-84.8,46.11-86.74,103.89a14.91,14.91,0,0,0-.1,1.49c0,.25,0,.51,0,.76,0,.8,0,1.59,0,2.39H217c4,17.69,41.16,31.55,86.46,31.55s82.47-13.86,86.46-31.55h.37C390.29,457.14,390.26,456.35,390.24,455.55Z"/><ellipse class="cls-6" cx="292.83" cy="217.41" rx="186.07" ry="148.37"/><path class="cls-1" d="M434.39,239.32c3.38-14.82,2.38-32.07-2.6-45-7.9-20.56-23.93-25-30.77-26.85-4-1.09-39.33-9.64-60.52,25.42a95.64,95.64,0,0,0-10.79,27.46c-2.07,9.06-4.53,26,2.15,37.81,4.82,8.5,12.56,10.29,31.93,11.07,35.86,1.44,53.85,2.17,63-11.52a54.5,54.5,0,0,0,7.55-18.36Z"/><g class="cls-7"><rect class="cls-8" x="321" y="259" width="112" height="10" rx="5" ry="5"/></g><path class="cls-1" d="M171.61,239.32c-3.38-14.82-2.38-32.07,2.6-45,7.9-20.56,23.93-25,30.77-26.85,4-1.09,39.33-9.64,60.52,25.42a95.64,95.64,0,0,1,10.79,27.46c2.07,9.06,4.53,26-2.15,37.81-4.82,8.5-12.56,10.29-31.93,11.07-35.86,1.44-53.85,2.17-63.05-11.52a54.5,54.5,0,0,1-7.55-18.36Z"/><g class="cls-9"><rect class="cls-8" x="173" y="259" width="112" height="10" rx="5" ry="5" transform="translate(458 528) rotate(180)"/></g><path class="cls-10" d="M282.34,43.24c-5.16,5.17,2.08,26.53,8.4,38.56a78.08,78.08,0,0,0,10.19,14.89c19.52,22.45,50.32,32.43,55.76,35C388.76,147,422.3,163,440.34,188.84c35.19,50.52,18.24,148.66,7.43,182.47-2.19,6.86-9.89,29.09,0,47.93,4.57,8.69,11.5,14,14.87,16.58,13,9.86,32.94,16.44,37.18,11.06,5.05-6.41-19.12-20.95-22.31-47.92-2.78-23.57,12.91-36,24.17-62.66,0,0,13.82-32.73,7.43-92.16C496.2,124,304,21.53,282.34,43.24Z"/><path class="cls-11" d="M277.21,94.85c-10.87,8.84-9.75,31.21-20.28,40.54-22.65,20.08-44.14,19.23-45.63,27.65-2.48,14.05,7.33,17.9,5.07,36.86-.61,5.15-8.56,21.1-20.28,27.65-7.59,4.24-5.65,1-18.59,3.69-2.34.47-24.45,5.27-28.73,20.27-1,3.37-.64,8.39,0,18.43.56,8.84,1.53,11.75,0,16.59-.44,1.4-2.72,8.61-8.45,11.06-5.25,2.25-7.76-1.94-13.52,0-7,2.34-10,10.69-10.14,11.06-1.22,3.46-.49,4.74,0,18.43.24,6.75.36,10.18,0,12.9-.6,4.62-1.6,12.23-6.76,16.59-2.92,2.47-4,1.22-8.45,3.69-7.46,4.15-11.13,11.44-11.83,12.9-3.74,7.75-3.5,16-3.38,20.27.14,4.93.86,6.21,0,9.22-1.49,5.18-5.55,8-10.14,11.06,0,0-5.1,3.41-20.28,9.21-8.19,6.5-17,6.22-20.28,1.85-2.44-3.24-2.07-9,0-12.91,2.37-4.49,5.68-4.09,16.9-11.06,8-5,9.45-7.12,10.14-9.21,1.18-3.59-.54-4.74,0-11.06.32-3.83,1.07-4.79,3.38-12.9,3.24-11.39,2-10.47,3.38-12.9,3.64-6.64,8.24-5.7,13.52-12.91a31.39,31.39,0,0,0,5.07-11.05c3.13-13.84-5.59-27.4-5.07-27.65.24-.12,2,3,3.38,7.37a35,35,0,0,1,1.69,9.22c-.29,0-.48-15.68-5.07-35-1.06-4.47-2.58-10.09,0-14.75,1.82-3.29,4.4-3.78,5.07-7.37.38-2-.31-4.42-1.69-9.22-1.18-4.09-1.86-5-1.69-7.37a15.64,15.64,0,0,1,1.69-5.53C87.81,237,89,237,89.62,234.92c.88-2.88-.82-4.24-1.69-9.21-.83-4.73.47-4.86,0-11.06-.5-6.62-2-7.07-1.69-11.06.32-3.81,2-6.34,5.07-11.06,5.8-8.76,8-7.78,10.14-12.9,2.61-6.25-.71-7.66,1.69-16.59.78-2.92,2.78-6.86,6.76-14.74,2.59-5.13,3.9-7.72,5.07-9.22.91-1.17,3.06-3.5,13.52-9.22,8.4-4.58,8.28-3.75,10.14-5.52,4.4-4.21,3.2-7.11,8.45-14.75,2.8-4.07,4.77-6.94,8.45-9.22,4-2.47,6.15-1.83,11.83-5.52,1.37-.89,2.6-1.83,5.07-3.69,3.88-2.93,5.82-4.4,6.76-5.53,3.57-4.29,2.08-6.91,5.07-9.22,1.21-.92,1.63-.63,8.45-1.84,4.57-.8,6.85-1.21,8.45-1.84a26.79,26.79,0,0,0,8.45-5.53c2.73-2.61,2.47-3.43,5.07-5.53A22.94,22.94,0,0,1,221.44,58a30.26,30.26,0,0,1,8.45-1.84c14.41-1.16,19.87,1.81,27-1.84,4.16-2.12,3.12-4.12,6.76-5.53,6.71-2.61,15.62.89,20.28,7.37a24.49,24.49,0,0,1,3.38,7.37c.34,1,2.67,8.39,1.69,14.75C287.78,86.49,281.19,91.61,277.21,94.85Z"/><path class="cls-12" d="M368.17,167a78.71,78.71,0,0,1-11.87,6.67C335.81,183,320.2,195.46,322,202.86c.63,2.59,4,3.87,5.84,4.58,3.4,1.3,13.8,3.78,48.32-27.54,9.46-8.58,12.23-12,19.14-14.32,13.76-4.61,26.66,3,27.17,1,.44-1.76-8.64-9-19.33-10.66a39.42,39.42,0,0,0-28.76,6.6c-1.45,1.08-2.89,2.18-4.38,3.2Z"/><path class="cls-13" d="M229.17,163.69a67.65,67.65,0,0,0,11.34,4.95c19.33,6.48,34.65,16.52,33.88,23.88-.27,2.58-3.11,4.24-4.7,5.17-2.9,1.68-11.9,5.39-46.19-20.51-9.4-7.1-12.25-10.05-18.68-11.42-12.79-2.72-23.45,6.3-24.13,4.4-.59-1.63,6.71-9.75,16.06-12.73a33.06,33.06,0,0,1,26.41,2.75c1.41.86,2.82,1.75,4.26,2.55Z"/><ellipse class="cls-14" cx="314.98" cy="284.69" rx="16.84" ry="7.37"/><path class="cls-6" d="M248.81,408.46c-13.47,21-24.61,43.54-34.63,36.75S207,416,220.43,395,253,362.55,263,369.33,262.28,387.51,248.81,408.46Z"/><path class="cls-15" d="M269.27,389s.05-.08.07-.13.07-.18.1-.27c4.32-10.43,1.13-21.77-7.36-25.64s-19.14,1.18-24.17,11.29a2,2,0,0,0-.14.25c0,.05,0,.1-.05.14s-.14.28-.2.42l.06,0c-.7,3.48,4.93,9,13.17,12.77s16.11,4.36,18.26,1.54l.07,0C269.15,389.28,269.21,389.14,269.27,389Z"/><ellipse class="cls-6" cx="205.82" cy="450.05" rx="20.36" ry="20.5" transform="translate(-186.58 148.51) rotate(-27.88)"/><path d="M290.57,313.62l-25.44-2.72A79.3,79.3,0,0,0,288,326.29V321A11.93,11.93,0,0,1,290.57,313.62Z"/><path d="M312,329c0,.24,0,.48,0,.72,6.93-1.23,14-4.7,20.67-11.61l-21.85-2.33A11.89,11.89,0,0,1,312,321Z"/><path class="cls-16" d="M300,329.79v0a50.23,50.23,0,0,1-12-3.5V329a12,12,0,0,0,24,.72A37,37,0,0,1,300,329.79Z"/><path class="cls-16" d="M300,317v12.79a37,37,0,0,0,12-.07c0-.24,0-.48,0-.72v-8a11.89,11.89,0,0,0-1.22-5.22l-20.21-2.16A11.93,11.93,0,0,0,288,321v5.29a50.23,50.23,0,0,0,12,3.5Z"/><g class="cls-17"><path class="cls-18" d="M300,317.88c.21.79.36,1.59.51,2.39v14.34c-.17.8-.3,1.59-.5,2.39-.2-.8-.33-1.59-.5-2.39V320.27C299.63,319.47,299.77,318.67,300,317.88Z"/></g><path class="cls-6" d="M356.87,408.8c11.81,21.93,21.18,45.3,31.69,39.31s9.45-28.62-2.36-50.55-29.92-34.85-40.43-28.86S345.05,386.87,356.87,408.8Z"/><path class="cls-19" d="M338,387.81l-.06-.13c0-.09-.06-.19-.08-.28-3.51-10.73.55-21.8,9.31-25s19,2.65,23.23,13.12a1.23,1.23,0,0,1,.12.26,1,1,0,0,1,0,.14c.06.15.12.29.17.44l-.07,0c.44,3.51-5.61,8.6-14.1,11.7s-16.4,3.11-18.34.14l-.07,0Z"/><ellipse class="cls-6" cx="387.32" cy="450.72" rx="20" ry="19.9" transform="translate(-200.62 537.24) rotate(-57.7)"/></svg>